<?xml version="1.0" encoding="UTF-8" standalone="no"?>
<!-- Created with Inkscape (http://www.inkscape.org/) -->

<svg
   version="1.1"
   id="svg1"
   width="687.41632"
   height="1099.4635"
   viewBox="0 0 687.41632 1099.4635"
   sodipodi:docname="350b.svg"
   inkscape:version="1.3.2 (091e20ef0f, 2023-11-25)"
   xmlns:inkscape="http://www.inkscape.org/namespaces/inkscape"
   xmlns:sodipodi="http://sodipodi.sourceforge.net/DTD/sodipodi-0.dtd"
   xmlns="http://www.w3.org/2000/svg"
   xmlns:svg="http://www.w3.org/2000/svg">
  <defs
     id="defs1" />
  <sodipodi:namedview
     id="namedview1"
     pagecolor="#ffffff"
     bordercolor="#000000"
     borderopacity="0.25"
     inkscape:showpageshadow="2"
     inkscape:pageopacity="0.0"
     inkscape:pagecheckerboard="0"
     inkscape:deskcolor="#d1d1d1"
     showgrid="false"
     inkscape:zoom="0.51316815"
     inkscape:cx="289.37883"
     inkscape:cy="605.06484"
     inkscape:window-width="1920"
     inkscape:window-height="1011"
     inkscape:window-x="0"
     inkscape:window-y="0"
     inkscape:window-maximized="1"
     inkscape:current-layer="layer1" />
  <g
     inkscape:groupmode="layer"
     id="layer1"
     inkscape:label="Layer 1"
     transform="translate(-178.27606,-118.48548)">
    <path
       id="path3"
       style="display:inline;fill:#ffff00"
       d="m 310.45575,367.37025 c -1.00384,0.0655 -2.64788,0.62656 -4.91211,1.72265 -3.14422,1.52209 -6.25567,4.18882 -8.3418,7.14844 -3.12927,4.43951 -3.36429,4.57359 -3.95312,2.24023 -0.52357,-2.07476 -0.74688,-1.78294 -1.36719,1.78516 -0.93198,5.36084 1.62034,15.56093 5.28711,21.12695 2.91248,4.42105 10.31822,10.14038 15.70117,12.125 5.19585,1.91565 14.535,1.63792 19.39648,-0.57617 4.52196,-2.05946 11.14158,-8.69068 13.65625,-13.67969 3.14818,-6.24583 3.03211,-8.26837 -0.93945,-16.20703 -2.08818,-4.17403 -4.17615,-7.58984 -4.63867,-7.58984 -0.46251,0 -1.15346,3.0013 -1.53516,6.66797 -0.90675,8.71027 -4.7779,16.42267 -11.31054,22.5332 -4.38493,4.10158 -5.96702,4.93359 -9.38477,4.93359 -2.73705,0 -4.93726,-0.7704 -6.58203,-2.30273 -4.06068,-3.7831 -7.78535,-13.27222 -8.35938,-21.29492 l -0.52148,-7.26563 4.96094,-5.02929 c 4.16783,-4.22755 5.05219,-6.48209 2.84375,-6.33789 z m 10.85351,4.27343 c -0.75692,-0.002 -1.56355,0.18878 -2.375,0.62305 -2.82379,1.51126 -2.71095,4.8087 0.23633,6.87305 3.0805,2.15766 3.59945,2.10096 5.48828,-0.59571 2.27292,-3.24504 -0.0696,-6.88991 -3.34961,-6.90039 z m 145.63282,5.16992 c -0.43652,-0.006 -0.86154,0.0378 -1.26368,0.13868 -3.46588,0.86988 -4.72348,4.80916 -2.13867,6.69922 2.22778,1.62898 2.2878,1.63579 6.72656,0.74804 2.29341,-0.45868 3.33399,-1.28345 3.33399,-2.64258 0,-2.41456 -3.60262,-4.90022 -6.6582,-4.94336 z m 17.18554,1.00782 c -0.26131,-0.0201 -0.46459,0.0271 -0.59179,0.15429 -0.32055,0.32055 -0.0471,2.1186 0.60742,3.9961 0.6545,1.87749 1.18541,6.58068 1.17969,10.45312 -0.0266,17.96578 -14.52929,30.5427 -24.81055,21.51563 -7.85002,-6.8924 -12.43229,-21.45082 -9.44727,-30.01367 0.66583,-1.90997 1.00317,-3.68042 0.75,-3.9336 -0.96432,-0.96432 -10.20871,9.82291 -11.33008,13.22071 -2.56518,7.77258 4.00505,20.4082 12.99805,24.99609 4.60837,2.35101 11.31728,4.11973 13.7168,3.61719 0.88,-0.1843 3.28064,-0.66871 5.33398,-1.07813 5.50412,-1.09747 12.86395,-5.13685 16.74414,-9.1875 6.83193,-7.13204 10.99529,-22.37778 7.38086,-27.0293 -1.54293,-1.98564 -1.66388,-1.579 -1.74023,5.86719 -0.0473,4.61194 -0.73218,9.3564 -1.61914,11.20117 l -1.53906,3.19922 0.7871,-3.73242 c 1.234,-5.85624 0.92296,-14.3579 -0.63085,-17.25976 -1.289,-2.40731 -5.9599,-5.84591 -7.78907,-5.98633 z" />
    <path
       id="path2"
       style="fill:#47e3ff"
       d="M 190.38934 118.65735 C 189.16735 118.1759 188.74383 118.70257 189.19598 120.26673 C 189.49276 121.2934 190.50934 125.31271 191.45575 129.19837 L 193.17645 136.26282 L 189.9909 140.98353 C 182.71845 151.75925 179.30044 166.07941 178.44989 189.33314 C 177.69716 209.91251 179.36313 227.51617 184.09637 248.98548 C 188.33548 268.21343 188.55866 271.13428 186.70575 283.11439 C 185.01874 294.02191 185.85462 300.14685 191.12372 315.48548 C 196.5002 331.13673 196.52656 333.95057 191.55536 363.20032 C 187.11392 389.33305 186.94319 392.07826 189.72528 392.80579 C 191.51725 393.2744 191.76915 394.81475 192.23114 408.13001 C 192.65888 420.45849 193.19684 424.18122 195.44989 430.39954 C 200.50049 444.33902 201.37446 446.32427 202.64325 446.7472 C 203.3403 446.97955 204.82545 449.30561 205.94403 451.91517 C 208.72372 458.39991 215.77627 469.05491 224.88348 480.53235 C 229.07309 485.81235 232.50729 490.73261 232.51629 491.46595 C 232.52521 492.19928 233.37953 492.79993 234.41278 492.79993 C 235.44603 492.79993 240.45401 496.39582 245.54169 500.79017 C 253.70083 507.83741 254.7853 509.19017 254.7409 512.25696 C 254.71322 514.16928 254.02486 516.7955 253.21161 518.09486 C 252.39836 519.39421 251.73309 521.35771 251.73309 522.45618 C 251.73309 523.55465 249.93309 527.05022 247.73309 530.22571 C 245.53309 533.40122 243.58725 536.67852 243.40887 537.50696 C 242.86255 540.04433 219.0077 576.94962 210.64129 588.20032 C 206.30611 594.03006 200.51711 601.10915 197.77801 603.93275 C 193.2256 608.62559 193.01604 609.06344 195.3327 609.02064 C 196.72658 608.99489 199.76826 608.29572 202.09247 607.4679 C 204.41666 606.64008 206.48844 606.13342 206.69598 606.34095 C 206.90352 606.54849 205.66838 609.52545 203.95184 612.95814 C 197.62524 625.60993 193.47444 643.00972 194.31903 653.33314 L 194.66669 657.60071 L 198.14911 650.93275 C 200.06399 647.26609 201.81326 644.26673 202.03583 644.26673 C 202.25841 644.26673 201.24878 647.9857 199.79364 652.53236 C 197.72728 658.98886 197.01889 663.97903 196.55536 675.31946 C 195.96396 689.78818 196.53781 696.08296 198.34833 694.964 C 198.87266 694.63995 199.61754 692.94187 200.00262 691.18861 C 200.93971 686.92209 202.66669 687.12545 202.66669 691.50306 C 202.66669 696.12939 207.23344 723.79786 210.72919 740.35462 C 214.82695 759.76266 218.17841 769.23329 236.0495 811.88782 C 247.52084 839.26752 251.47703 855.96134 254.41083 889.3722 L 256.01044 907.59681 L 252.37762 917.63392 C 247.86446 930.10172 245.65562 934.48291 237.59051 946.97376 C 234.07195 952.42315 231.49534 957.18328 231.86395 957.55189 C 232.23256 957.92049 234.42496 956.70285 236.737 954.84486 C 239.04904 952.98686 241.14607 951.46595 241.3952 951.46595 C 241.64433 951.46595 240.14798 956.38622 238.07098 962.39954 C 234.35026 973.17171 234.29515 973.58445 234.33075 990.39954 C 234.39415 1020.3443 239.14874 1044.2027 251.07294 1074.421 C 254.95522 1084.2595 258.25182 1093.8325 258.39911 1095.6945 L 258.66669 1099.0812 L 247.46747 1100.3683 C 232.25882 1102.1176 227.08784 1103.595 219.94989 1108.2257 C 212.18688 1113.262 206.37006 1119.749 202.81122 1127.339 C 199.84948 1133.6555 199.9477 1132.2381 200.62567 1158.9327 C 200.70017 1161.866 200.41158 1167.9041 199.98504 1172.3507 C 198.50582 1187.7713 204.67116 1199.0216 217.07684 1203.5382 C 223.82191 1205.9938 239.08631 1207.9493 250.13348 1207.7726 C 294.32098 1207.0661 291.95253 1207.2841 302.39911 1202.9562 C 310.51215 1199.5951 312.86516 1198.026 317.58661 1192.8234 C 324.8738 1184.7936 336.01135 1162.5791 341.97723 1144.1769 C 345.36653 1133.7224 344.60856 1134.3801 359.15887 1129.2882 L 365.78583 1126.9699 L 369.29169 1130.2492 C 371.22083 1132.053 374.48054 1134.6611 376.53387 1136.046 C 381.19065 1139.1866 381.82988 1140.0992 381.85028 1143.6281 C 381.86237 1145.7206 380.92681 1147.0112 378.25262 1148.589 C 370.75406 1153.0133 364.91751 1171.0615 364.83661 1190.0792 C 364.80054 1198.557 364.90423 1198.9231 368.20184 1202.005 C 370.07289 1203.7536 375.20126 1207.243 379.59833 1209.7589 L 387.59247 1214.3331 L 402.59637 1215.1222 C 410.84823 1215.5566 419.75911 1216.3589 422.39911 1216.9054 C 429.77931 1218.4331 435.25239 1218.2944 441.63348 1216.4171 C 445.03801 1215.4156 451.90713 1214.6379 458.13348 1214.5499 C 467.46126 1214.418 469.55853 1214.0277 474.83856 1211.4347 C 480.4693 1208.6696 487.58784 1202.2223 488.7702 1198.8175 C 489.15307 1197.715 490.40906 1198.2252 493.65301 1200.8038 C 499.71765 1205.6246 502.45844 1206.5342 514.66669 1207.7706 C 538.01863 1210.1356 563.84595 1208.457 574.93426 1203.8546 C 578.74759 1202.2718 583.78681 1200.4757 586.13348 1199.8624 C 588.48015 1199.2491 607.67952 1198.335 628.7995 1197.8331 C 671.94233 1196.8076 678.53821 1195.9245 696.53387 1188.7511 L 706.66669 1184.712 L 728.53387 1184.6202 C 747.9724 1184.539 751.34883 1184.257 758.94989 1182.0812 C 769.25962 1179.1301 771.33142 1178.0282 769.17254 1176.6378 C 767.44814 1175.5271 768.71788 1174.8253 789.60028 1165.3488 C 797.08027 1161.9544 803.19989 1158.7971 803.19989 1158.3331 C 803.19989 1157.8692 802.36283 1157.3293 801.33856 1157.132 C 800.0539 1156.8846 801.29463 1155.6608 805.33856 1153.1886 C 808.56283 1151.2175 816.8702 1144.0236 823.80145 1137.2023 L 836.40497 1124.7999 L 832.98895 1124.2667 L 829.57489 1123.7335 L 833.62567 1118.9327 C 842.6853 1108.195 855.46351 1086.1283 855.46551 1081.2179 C 855.46618 1079.636 854.92758 1079.3713 852.7995 1079.9054 C 851.33284 1080.2735 850.13348 1080.1531 850.13348 1079.6378 C 850.13348 1079.1226 851.7586 1075.1535 853.74481 1070.8175 C 859.07232 1059.1874 862.79449 1047.2343 864.6159 1035.9152 C 866.24822 1025.7713 866.06715 1023.6397 863.76825 1025.9386 C 863.07403 1026.6328 862.19489 1027.2003 861.81317 1027.2003 C 861.43145 1027.2003 860.81839 1019.6395 860.45184 1010.3995 C 859.19066 978.60717 852.83545 956.5309 833.04754 915.20032 C 815.47476 878.49641 812.21681 866.64922 812.35809 839.99915 C 812.46506 819.82075 813.02072 816.7724 823.96161 776.53236 C 830.68922 751.78854 837.3327 721.82794 837.3327 716.22962 C 837.3327 715.30407 836.6896 714.98118 835.6452 715.38196 C 834.17992 715.94424 834.07166 715.34128 834.82489 710.81361 C 836.99409 697.77453 835.04036 651.6209 832.237 649.68079 C 831.74868 649.34284 830.48882 644.98582 829.43622 639.99915 C 820.48205 597.57872 798.44683 565.61635 767.46551 550.11048 C 756.87561 544.81034 750.42372 543.14799 737.3327 542.3429 C 721.12759 541.3463 710.8926 542.96337 700.21356 548.20814 C 685.28213 555.54136 670.63726 571.46557 665.60419 585.84095 C 663.14413 592.86734 662.63966 609.52601 664.70379 615.57337 C 666.81242 621.75104 672.7945 630.18863 677.46161 633.56946 C 682.7438 637.39586 684.6793 637.73302 682.22723 634.39954 C 677.88235 628.49287 675.99448 622.68206 676.57879 617.02064 C 677.6052 607.07566 683.41374 599.10937 693.3327 594.04603 C 699.33747 590.98076 710.47199 590.70823 718.51629 593.42884 C 737.96888 600.00777 752.22813 631.37946 752.28973 667.73353 C 752.3325 692.97554 748.38624 711.47032 736.01434 743.99915 C 725.3775 771.96609 719.3593 790.50582 717.74872 800.26673 C 716.99849 804.8134 716.04412 808.53236 715.62762 808.53236 C 715.21111 808.53236 712.56526 804.57352 709.74872 799.73353 C 698.41616 780.2595 678.39423 749.59275 668.13739 735.99915 C 653.41037 716.48113 636.44124 698.16313 614.85028 678.47376 C 577.21357 644.15184 568.30427 633.71594 559.53387 613.67493 C 556.31893 606.32854 555.45592 602.61904 554.06512 590.20814 C 551.85257 570.46438 549.7644 563.28861 539.59247 540.45618 C 534.84133 529.79154 530.72261 519.38647 530.44012 517.33314 C 529.95408 513.80027 530.31455 513.28517 537.14325 507.73353 C 541.11214 504.50687 545.44261 501.14673 546.76629 500.26673 C 549.18865 498.65632 556.57226 490.15276 565.18231 479.05775 C 569.54502 473.4359 582.39911 449.136 582.39911 446.51087 C 582.39911 445.85216 583.36054 444.71433 584.53387 443.98157 C 586.42653 442.79958 586.67738 442.92049 586.75458 445.05775 C 586.82655 447.05006 587.1265 446.82105 588.4909 443.73353 C 590.74416 438.63462 594.05928 419.12339 594.10028 410.71985 C 594.12636 405.36874 594.41722 404.12469 595.41278 405.12025 C 596.11678 405.82424 597.07821 406.39954 597.54754 406.39954 C 598.99894 406.39954 598.48844 384.27504 596.69989 369.64368 C 594.1912 349.12122 594.82314 342.09321 600.38934 328.64954 C 605.20972 317.00721 605.72009 314.13149 607.8952 286.36634 C 608.76078 275.31732 609.7146 271.01911 614.75262 255.4347 C 624.8036 224.34345 627.93957 204.41042 626.8327 178.66712 C 626.1467 162.71238 624.93894 156.7345 620.31317 146.42689 C 617.60492 140.39211 617.49782 139.63421 618.83075 135.92103 C 619.96729 132.7549 619.98799 131.82601 618.93426 131.47181 C 617.91416 131.1289 617.9775 130.48933 619.20184 128.74134 C 622.1773 124.49327 620.94591 123.38447 617.05145 126.80384 C 611.33119 131.8263 607.84739 133.24381 594.37176 136.03821 C 572.77946 140.51577 558.51998 148.79951 527.46747 174.89954 C 479.07392 215.57494 470.70184 221.21354 458.90106 221.0929 C 455.54505 221.05859 445.59949 219.55353 436.7995 217.74915 C 407.02838 211.64478 383.70262 210.89485 351.46747 215.0011 C 342.90305 216.09212 334.85706 216.58166 332.60223 216.14954 C 326.25886 214.93389 317.43631 208.19456 298.13348 189.81751 C 252.54405 146.41456 237.92197 136.11866 214.13153 130.66517 C 202.56722 128.01427 201.19411 127.42705 196.37567 123.09485 C 193.63157 120.62767 191.61134 119.13881 190.38934 118.65735 z M 310.45575 367.37025 C 312.66419 367.22605 311.77982 369.48059 307.612 373.70814 L 302.65106 378.73743 L 303.17254 386.00306 C 303.74657 394.02575 307.47124 403.51488 311.53192 407.29798 C 313.17669 408.83031 315.3769 409.60071 318.11395 409.60071 C 321.5317 409.60071 323.11379 408.7687 327.49872 404.66712 C 334.03135 398.5566 337.90251 390.84418 338.80926 382.13392 C 339.19096 378.46725 339.88191 375.46595 340.34442 375.46595 C 340.80694 375.46595 342.89491 378.88177 344.98309 383.05579 C 348.95465 390.99444 349.07072 393.017 345.92254 399.26282 C 343.40788 404.25183 336.78825 410.88305 332.26629 412.94251 C 327.40482 415.1566 318.06565 415.43433 312.86981 413.51868 C 307.48687 411.53407 300.08112 405.81473 297.16864 401.39368 C 293.50187 395.82767 290.94955 385.62756 291.88153 380.26673 C 292.50184 376.69863 292.72515 376.40682 293.24872 378.48157 C 293.83755 380.81493 294.07257 380.68084 297.20184 376.24134 C 299.28797 373.28172 302.39942 370.61499 305.54364 369.0929 C 307.80787 367.99681 309.45191 367.43575 310.45575 367.37025 z M 321.30926 371.64368 C 324.58927 371.65416 326.93179 375.29904 324.65887 378.54407 C 322.77004 381.24074 322.25109 381.29743 319.17059 379.13978 C 316.22331 377.07543 316.11048 373.77799 318.93426 372.26673 C 319.74571 371.83246 320.55234 371.64168 321.30926 371.64368 z M 466.94208 376.8136 C 469.99765 376.85674 473.60028 379.34241 473.60028 381.75696 C 473.60028 383.11609 472.5597 383.94086 470.26629 384.39954 C 465.82754 385.28729 465.76751 385.28047 463.53973 383.6515 C 460.95492 381.76144 462.21253 377.82216 465.6784 376.95228 C 466.08054 376.8514 466.50556 376.80761 466.94208 376.8136 z M 484.12762 377.82142 C 485.95679 377.96184 490.62769 381.40044 491.91669 383.80775 C 493.47049 386.7096 493.78154 395.21128 492.54754 401.06751 L 491.76044 404.79993 L 493.2995 401.60071 C 494.18646 399.75595 494.87134 395.01148 494.91864 390.39954 C 494.99499 382.95336 495.11594 382.54672 496.65887 384.53235 C 500.2733 389.18387 496.10994 404.42962 489.27801 411.56165 C 485.39783 415.6123 478.03799 419.65168 472.53387 420.74915 C 470.48053 421.15857 468.07989 421.64298 467.19989 421.82728 C 464.80037 422.32982 458.09146 420.5611 453.48309 418.21009 C 444.4901 413.6222 437.91987 400.98657 440.48504 393.214 C 441.60641 389.8162 450.8508 379.02897 451.81512 379.99329 C 452.06829 380.24647 451.73095 382.01692 451.06512 383.92689 C 448.08011 392.48973 452.66238 407.04817 460.51239 413.94056 C 470.79364 422.96762 485.29634 410.3907 485.32294 392.42493 C 485.32865 388.5525 484.79775 383.8493 484.14325 381.97181 C 483.48873 380.09431 483.21528 378.29626 483.53583 377.97571 C 483.66303 377.84852 483.86631 377.80132 484.12762 377.82142 z " />
    <path
       style="fill:#ff6347"
       d="m 422.40001,1216.9059 c -2.64,-0.5465 -11.55153,-1.3492 -19.8034,-1.7836 l -15.00341,-0.79 -7.99469,-4.5742 c -4.39707,-2.5159 -9.52554,-6.005 -11.39659,-7.7536 -3.29761,-3.0819 -3.40077,-3.4475 -3.3647,-11.9253 0.0809,-19.0177 5.91671,-37.0666 13.41528,-41.4909 2.67419,-1.5778 3.60993,-2.8679 3.59784,-4.9604 -0.0204,-3.5289 -0.66022,-4.4413 -5.317,-7.5819 -2.05333,-1.3849 -5.31172,-3.9937 -7.24087,-5.7975 l -3.50753,-3.2796 -6.6258,2.3186 c -14.55033,5.0919 -13.79172,4.4345 -17.18102,14.889 -5.96589,18.4022 -17.10412,40.6164 -24.39132,48.6462 -4.72145,5.2026 -7.07374,6.7722 -15.18679,10.1333 -10.44659,4.3279 -8.07913,4.1097 -52.26667,4.8162 -11.04718,0.1767 -26.31152,-1.7786 -33.0566,-4.2342 -12.40569,-4.5166 -18.57096,-15.7661 -17.09173,-31.1867 0.42654,-4.4466 0.71457,-10.4847 0.64007,-13.418 -0.67797,-26.6947 -0.77597,-25.2782 2.18577,-31.5947 3.55885,-7.59 9.37609,-14.0774 17.13911,-19.1137 7.13796,-4.6307 12.30805,-6.1068 27.51671,-7.8561 l 11.2,-1.2882 -0.2678,-3.3855 c -0.14729,-1.862 -3.44422,-11.4351 -7.32651,-21.2736 -11.92421,-30.2184 -16.67804,-54.0768 -16.74144,-84.02156 -0.0356,-16.81511 0.0195,-17.22782 3.74023,-28 2.077,-6.01333 3.57253,-10.93333 3.3234,-10.93333 -0.24913,0 -2.34464,1.52019 -4.65668,3.37819 -2.31204,1.858 -4.50529,3.0766 -4.8739,2.708 -0.36861,-0.36861 2.20864,-5.1288 5.72721,-10.57819 8.06511,-12.49086 10.27339,-16.87268 14.78656,-29.34049 l 3.63315,-10.03675 -1.60034,-18.22511 c -2.9338,-33.41089 -6.88946,-50.10397 -18.36081,-77.48369 -17.87111,-42.65458 -21.22351,-52.12518 -25.32128,-71.53324 -3.49575,-16.55678 -8.06179,-44.22542 -8.06179,-48.85176 0,-4.37761 -1.72689,-4.58236 -2.66398,-0.31584 -0.38508,1.75327 -1.12915,3.4529 -1.65348,3.77695 -1.81052,1.11897 -2.3854,-5.17611 -1.794,-19.64484 0.46353,-11.34045 1.17282,-16.33004 3.23918,-22.78655 1.45514,-4.54666 2.46359,-8.26666 2.24101,-8.26666 -0.22257,0 -1.97141,3 -3.8863,6.66666 l -3.48161,6.66667 -0.34906,-4.26667 c -0.84459,-10.32343 3.307,-27.72279 9.63361,-40.3746 1.71654,-3.43269 2.95118,-6.41107 2.74364,-6.61861 -0.20754,-0.20753 -2.27897,0.29997 -4.60317,1.12779 -2.32421,0.82782 -5.36629,1.52619 -6.76017,1.55194 -2.31666,0.0428 -2.10658,-0.39413 2.44584,-5.08698 2.7391,-2.8236 8.52715,-9.9036 12.86234,-15.73334 8.36641,-11.25072 32.22218,-48.15587 32.7685,-50.69324 0.17838,-0.82845 2.12432,-4.10442 4.32432,-7.27993 2.2,-3.1755 4,-6.67239 4,-7.77086 0,-1.09847 0.66538,-3.06033 1.47863,-4.35969 0.81325,-1.29936 1.50127,-3.92709 1.52895,-5.83941 0.0444,-3.0668 -1.04085,-4.41941 -9.2,-11.46666 -5.08768,-4.39435 -10.0957,-7.98973 -11.12895,-7.98973 -1.03325,0 -1.88594,-0.6 -1.89486,-1.33333 -0.009,-0.73334 -3.4441,-5.65334 -7.63371,-10.93334 -9.10722,-11.47746 -16.15922,-22.13369 -18.93891,-28.61844 -1.11858,-2.60956 -2.6041,-4.93476 -3.30115,-5.16711 -1.26879,-0.42293 -2.14234,-2.40829 -7.19295,-16.34778 -2.25305,-6.21833 -2.79122,-9.9416 -3.21896,-22.27009 -0.46199,-13.31527 -0.71389,-14.85579 -2.50586,-15.3244 -2.78209,-0.72753 -2.61249,-3.47275 1.82895,-29.6055 4.97121,-29.24978 4.94582,-32.06334 -0.43067,-47.71461 -5.2691,-15.33865 -6.10509,-21.46405 -4.41808,-32.37158 1.85291,-11.98012 1.62957,-14.90107 -2.60954,-34.12904 -4.73325,-21.46933 -6.3996,-39.07204 -5.64687,-59.65143 0.85055,-23.25375 4.26867,-37.57317 11.54113,-48.3489 l 3.18644,-4.72142 -1.72075,-7.06484 c -0.94641,-3.88566 -1.96356,-7.90483 -2.26034,-8.9315 -0.9043,-3.12833 1.69173,-2.10551 7.17993,2.82886 4.81845,4.3322 6.19241,4.91784 17.75673,7.56874 23.79047,5.4535 38.41136,15.74935 84.00084,59.15234 19.30285,18.37707 28.125,25.11685 34.46838,26.3325 2.25483,0.43212 10.30054,-0.0578 18.86496,-1.14882 32.23519,-4.10626 55.56218,-3.35457 85.33333,2.74981 8.8,1.80438 18.74583,3.30876 22.10184,3.34307 11.80079,0.12064 20.17124,-5.51878 68.56483,-46.19422 31.05254,-26.10006 45.31181,-34.38224 66.90413,-38.8598 13.47564,-2.79441 16.9612,-4.21379 22.68147,-9.23626 3.89446,-3.41937 5.12464,-2.31004 2.14918,1.93803 -1.22434,1.74799 -1.28677,2.38707 -0.26667,2.72998 1.05373,0.3542 1.03187,1.2835 -0.10467,4.44963 -1.33293,3.71319 -1.22599,4.47115 1.48226,10.50593 4.62578,10.30762 5.83485,16.28545 6.52085,32.24021 1.10687,25.74333 -2.02992,45.67585 -12.08091,76.76713 -5.03803,15.58443 -5.99114,19.8843 -6.85672,30.93333 -2.17511,27.76518 -2.68542,30.63989 -7.5058,42.28223 -5.56621,13.44368 -6.1988,20.47117 -3.69011,40.99365 1.78855,14.63137 2.29839,36.75698 0.84699,36.75698 -0.46933,0 -1.42933,-0.576 -2.13333,-1.28 -0.99556,-0.99556 -1.28745,0.24888 -1.31353,5.6 -0.041,8.40354 -3.35606,27.91442 -5.60932,33.01333 -1.36441,3.08753 -1.66484,3.31661 -1.73681,1.32429 -0.0772,-2.13726 -0.32768,-2.25874 -2.22034,-1.07675 -1.17333,0.73276 -2.13333,1.87124 -2.13333,2.52995 0,2.62513 -12.85479,26.92497 -17.2175,32.54682 -8.61006,11.09503 -15.9939,19.59861 -18.41626,21.20902 -1.32369,0.88 -5.65399,4.24 -9.62289,7.46666 -6.8287,5.55165 -7.1886,6.06713 -6.70256,9.6 0.28249,2.05334 4.40091,12.45895 9.15205,23.1236 10.17194,22.83245 12.25885,30.00696 14.4714,49.75074 1.3908,12.41092 2.25552,16.12027 5.47047,23.46667 8.77041,20.04103 17.67874,30.47656 55.31549,64.79852 21.59098,19.68939 38.56059,38.00909 53.28762,57.52713 10.25685,13.59361 30.27803,44.25928 41.6106,63.73333 2.81655,4.84 5.46178,8.8 5.87829,8.8 0.4165,0 1.3711,-3.72 2.12133,-8.26667 1.61059,-9.76092 7.62876,-28.29969 18.26561,-56.26666 12.37191,-32.52886 16.31917,-51.02463 16.2764,-76.26667 -0.0616,-36.3541 -14.32086,-67.72582 -33.77347,-74.30476 -8.04431,-2.72061 -19.17847,-2.44746 -25.18325,0.61781 -9.91897,5.06335 -15.72848,13.02937 -16.75489,22.97436 -0.58431,5.66143 1.30479,11.47258 5.64968,17.37926 2.45207,3.33348 0.51479,2.99605 -4.76741,-0.83035 -4.66711,-3.38084 -10.64781,-11.8178 -12.75644,-17.99548 -2.06414,-6.04737 -1.55961,-22.70775 0.90045,-29.73415 5.03308,-14.37539 19.67698,-30.29858 34.60842,-37.63181 10.67905,-5.24477 20.91424,-6.86211 37.11937,-5.86551 13.09103,0.80509 19.54247,2.46835 30.13238,7.7685 30.98135,15.50589 53.01687,47.46833 61.97105,89.8888 1.0526,4.98667 2.31334,9.34317 2.80166,9.68112 2.80337,1.94011 4.75739,48.09416 2.58819,61.13325 -0.75323,4.52768 -0.64524,5.12909 0.82004,4.56681 1.0444,-0.40078 1.68751,-0.0776 1.68751,0.84795 0,5.59832 -6.64334,35.56036 -13.37096,60.3042 -10.9409,40.24009 -11.49827,43.28824 -11.60524,63.46666 -0.14128,26.65009 3.11808,38.49605 20.69088,75.2 19.78793,41.33062 26.14296,63.40754 27.40414,95.19995 0.36655,9.24 0.97876,16.8 1.36048,16.8 0.38172,0 1.26203,-0.568 1.95625,-1.2622 2.2989,-2.2989 2.48013,-0.1658 0.84781,9.9781 -1.82142,11.3191 -5.54455,23.2709 -10.87207,34.901 -1.98621,4.336 -3.61129,8.3051 -3.61129,8.8203 0,0.5153 1.2,0.6356 2.66666,0.2675 2.12808,-0.5341 2.6665,-0.2689 2.66583,1.313 -0.002,4.9104 -12.7813,26.9779 -21.84094,37.7157 l -4.04986,4.8 3.41477,0.5333 3.41477,0.5333 -12.60228,12.4024 c -6.93126,6.8213 -15.24033,14.0151 -18.4646,15.9862 -4.04393,2.4722 -5.28466,3.6951 -4,3.9425 1.02427,0.1973 1.86231,0.7382 1.86231,1.2021 0,0.464 -6.12,3.6208 -13.6,7.0152 -20.88242,9.4765 -22.15243,10.1783 -20.42802,11.289 2.15888,1.3904 0.0883,2.4933 -10.22144,5.4444 -7.60107,2.1758 -10.97866,2.4577 -30.41721,2.5389 l -21.86666,0.091 -10.13334,4.0393 c -17.99568,7.1734 -24.59045,8.0577 -67.73333,9.0832 -21.12,0.5019 -40.32,1.4144 -42.66667,2.0277 -2.34667,0.6133 -7.38667,2.4102 -11.2,3.993 -11.08832,4.6024 -36.9147,6.2803 -60.26667,3.9153 -12.20826,-1.2364 -14.94882,-2.1448 -21.01346,-6.9656 -3.24396,-2.5786 -4.50001,-3.0898 -4.88288,-1.9873 -1.18236,3.4048 -8.30166,9.8521 -13.93241,12.6172 -5.28004,2.593 -7.37679,2.9841 -16.70458,3.116 -6.22636,0.088 -13.0946,0.8651 -16.49913,1.8666 -6.3811,1.8773 -11.854,2.0162 -19.23421,0.4885 z m 20.30732,-8.6393 c 3.68146,-1.8565 4.65748,-2.8832 4.30954,-4.5333 -0.2474,-1.1734 -0.4874,-7.6534 -0.53333,-14.4 -0.0639,-9.3768 0.31905,-12.9933 1.62524,-15.3507 1.62322,-2.9297 1.68346,-2.4223 1.20328,10.1333 -0.61568,16.0985 0.65198,20.3641 6.81729,22.9401 6.12966,2.5612 15.76225,-0.344 22.18288,-6.6904 4.59815,-4.5449 6.53921,-9.9938 9.6297,-27.0323 7.15798,-39.4636 17.37521,-72.0349 44.95479,-143.3107 7.28015,-18.8146 13.23663,-34.64178 13.23663,-35.17152 0,-0.52974 -1.24165,-0.1496 -2.75922,0.84475 -3.8247,2.50604 -4.57311,1.14592 -1.30611,-2.37368 4.06976,-4.38444 15.06549,-20.54426 14.41897,-21.19078 -0.31016,-0.31017 -2.46479,1.15338 -4.78807,3.25232 -2.32327,2.09894 -4.53676,3.81625 -4.91886,3.81625 -0.38209,0 1.90217,-3.72 5.07614,-8.26666 6.81705,-9.76533 15.79911,-24.8 14.81609,-24.8 -0.3796,0 -2.70573,2.28 -5.16917,5.06666 -6.79253,7.68377 -6.36164,5.07585 0.74902,-4.53333 3.473,-4.69333 9.23458,-14.41333 12.8035,-21.6 3.56892,-7.18666 6.74141,-13.06666 7.04999,-13.06666 0.52278,0 0.34423,1.26191 -1.30297,9.20889 -0.9693,4.6764 4.712,-8.96635 6.41549,-15.40579 0.82403,-3.11496 1.57495,-10.20242 1.66872,-15.7499 0.21648,-12.80772 2.03239,-14.41602 2.08823,-1.84949 0.0417,9.3793 0.0447,9.38954 1.68428,5.66295 0.90339,-2.05333 1.91527,-6.28732 2.24861,-9.40887 0.35518,-3.32608 0.94765,-5.12287 1.4312,-4.34047 1.48503,2.40283 2.38404,-6.46427 1.67218,-16.49305 -0.42648,-6.00831 -0.30797,-9.2741 0.31358,-8.64138 0.54955,0.55941 1.19056,2.93711 1.42447,5.28378 0.26682,2.67667 0.47973,1.48417 0.57135,-3.2 0.19678,-10.06093 -2.27596,-29.99682 -5.07593,-40.92353 -2.50356,-9.76999 -2.3133,-12.53139 0.36355,-5.27647 l 1.69727,4.6 -0.59496,-6.93333 c -0.32722,-3.81334 -1.54068,-13.59365 -2.69657,-21.73403 -1.15589,-8.14038 -1.86529,-15.03702 -1.57645,-15.32586 0.56886,-0.56886 1.14518,1.5904 2.63169,9.85989 0.92427,5.1417 0.96234,5.00756 1.05949,-3.73334 0.11533,-10.37563 -1.81142,-20.68155 -5.83519,-31.21162 -1.53646,-4.02088 -2.5114,-7.59285 -2.16652,-7.93773 0.34487,-0.34487 1.12885,0.52265 1.74219,1.92783 0.93205,2.13537 1.02182,1.8137 0.54675,-1.95903 -0.31262,-2.48264 -2.36073,-7.76264 -4.55135,-11.73334 -4.76552,-8.63792 -11.99806,-24.69334 -11.99806,-26.63433 0,-0.76181 0.85512,-1.3851 1.90027,-1.3851 1.41559,0 4.01507,4.54188 10.1917,17.80721 7.34591,15.77659 8.7223,19.76019 12.06999,34.93334 l 3.77857,17.12611 -0.16461,25.6 c -0.1043,16.22105 0.47618,32.97609 1.58444,45.73317 0.96197,11.07324 1.54397,22.83324 1.29334,26.13333 -0.25063,3.30009 -2.86321,14.16016 -5.80573,24.13349 -4.21185,14.27555 -7.21646,21.87765 -14.12307,35.73333 -14.78571,29.6623 -30.06475,66.56153 -54.98915,132.79999 -4.85656,12.9067 -9.88711,27.0667 -11.179,31.4667 -1.29189,4.4 -3.47091,10.4 -4.84226,13.3333 -2.42645,5.1902 -5.84782,19.5738 -5.84782,24.5845 0,3.6307 1.53894,4.051 7.53734,2.0587 2.94584,-0.9785 5.93505,-1.901 6.6427,-2.05 0.70764,-0.149 2.00662,-0.5531 2.88662,-0.8979 3.75375,-1.4707 24.24678,-3.9589 32.30939,-3.9228 4.81651,0.022 12.11728,0.6932 16.22395,1.4926 4.10667,0.7993 7.56994,1.3584 7.69616,1.2424 0.12623,-0.116 -0.97643,-3.1965 -2.45035,-6.8456 -4.03731,-9.9953 -5.38746,-22.5538 -3.87747,-36.0664 0.68591,-6.138 1.73779,-11.978 2.33751,-12.9778 0.825,-1.3753 0.97042,-0.7793 0.59748,2.449 -2.31496,20.0384 -1.15864,36.6534 3.21962,46.2622 1.43571,3.1509 2.61038,6.3395 2.61038,7.0859 0,1.2947 2.23929,2.6519 4.37559,2.6519 0.55061,0 0.0906,-1.8 -1.02222,-4 -2.52187,-4.9856 -5.4867,-17.8761 -5.4867,-23.855 0,-6.3525 0.92868,-4.6758 3.22152,5.8164 2.18919,10.0179 5.72379,19.1007 8.24854,21.196 1.11717,0.9272 0.88728,-0.1101 -0.72465,-3.2698 -3.37233,-6.6103 -2.03225,-6.5965 2.8653,0.029 8.03499,10.8706 17.55911,17.5231 34.92262,24.3928 9.72381,3.8471 11.84926,5.2901 7.79236,5.2901 -4.54064,0 -15.64958,-3.8523 -31.92424,-11.0705 -29.97427,-13.2942 -48.34582,-17.344 -64.54605,-14.2285 -16.49317,3.1719 -31.70627,11.2541 -38.7772,20.6011 -3.99182,5.2768 -7.16441,14.7328 -8.34669,24.8778 -1.55335,13.3289 0.88831,20.2026 8.60182,24.2155 3.36337,1.7497 3.46268,1.4297 1.36409,-4.3954 -1.7927,-4.9761 -2.08989,-17.5043 -0.54699,-23.0588 1.21884,-4.3879 5.20346,-10.698 7.16128,-11.3407 0.78108,-0.2564 0.24066,1.9089 -1.33587,5.3525 -4.08719,8.9276 -5.24221,16.3291 -3.70428,23.7372 1.86187,8.9686 5.00505,11.7781 14.4748,12.9382 9.73519,1.1926 21.60388,0.9523 25.22013,-0.5105 2.89285,-1.1702 2.89606,-1.1837 1.33333,-5.6129 -3.45009,-9.7786 -1.17668,-23.924 4.68286,-29.137 2.8171,-2.5063 2.83069,-2.7408 -0.36483,6.2986 -2.95656,8.3635 -3.20828,11.3753 -1.51331,18.1066 1.68387,6.6873 5.18516,9.6057 11.20959,9.3435 6.59065,-0.2868 12.42735,-3.126 21.04081,-10.2349 4.00855,-3.3083 7.49961,-6.0152 7.75792,-6.0152 0.25831,0 -0.3723,1.285 -1.40135,2.8555 -1.87066,2.855 -1.87051,2.8554 0.77541,2.1479 1.45553,-0.3891 9.23135,-0.7141 17.2796,-0.7221 12.53239,-0.012 14.54549,-0.2432 14.0223,-1.6066 -0.54165,-1.4115 -0.17901,-1.4115 3.19921,0 2.09557,0.8756 4.84431,1.592 6.10832,1.592 1.89305,0 2.07054,-0.2743 1.00679,-1.5561 -1.06391,-1.2819 -0.80636,-1.6777 1.46202,-2.2471 1.51439,-0.3801 2.48842,-1.1198 2.16452,-1.6439 -0.84139,-1.3614 0.22863,-1.2146 8.60365,1.1804 8.82465,2.5237 11.17452,2.6765 5.6,0.3643 -4.24045,-1.7588 -5.68593,-4.1325 -1.6,-2.6274 1.32,0.4863 3.84,1.1983 5.6,1.5823 l 3.2,0.6982 -2.66666,-1.5709 -2.66667,-1.5709 3.53679,-0.038 c 1.94524,-0.021 4.34524,0.3878 5.33333,0.9079 1.08513,0.5712 4.51772,0.4485 8.66832,-0.3098 l 6.87177,-1.2554 -8.96768,-2.4577 c -10.87948,-2.9815 -20.58493,-6.5359 -19.85093,-7.2699 0.29633,-0.2964 3.56945,0.4461 7.2736,1.6498 9.90277,3.2181 18.19583,4.4463 29.06404,4.3045 12.20942,-0.1594 19.53823,-1.693 8.98859,-1.881 -8.15172,-0.1452 -23.17859,-2.7937 -28.52451,-5.0273 -5.32203,-2.2237 -3.76793,-2.547 4.14001,-0.8612 3.81334,0.813 11.86658,1.7958 17.89609,2.1841 9.2075,0.593 10.87011,0.4646 10.38418,-0.8017 -0.4162,-1.0846 0.8477,-1.8466 4.50392,-2.7152 6.07633,-1.4437 21.3335,-8.1101 19.76096,-8.6343 -0.60807,-0.2027 -6.01338,0.8756 -12.01181,2.3961 -10.44491,2.6476 -17.37733,3.2122 -9.6,0.7818 2.05333,-0.6416 9.49333,-2.9925 16.53333,-5.2241 l 12.8,-4.0575 -6.93333,-0.5651 -6.93333,-0.5651 7.46666,-2.324 c 4.10667,-1.2781 8.78667,-2.6434 10.4,-3.0339 5.10208,-1.235 3.18073,-2.6121 -3.64444,-2.6121 -3.61778,0 -6.25563,-0.3222 -5.86189,-0.7159 0.39373,-0.3937 6.24883,-2.3063 13.01132,-4.2502 6.76249,-1.9438 13.60034,-4.284 15.19523,-5.2003 l 2.89978,-1.6661 -3.73333,0.5247 c -9.04889,1.2717 -18.60397,1.6885 -16.53333,0.7211 1.17333,-0.5482 3.57333,-1.0765 5.33333,-1.1741 1.76,-0.097 5.6,-0.7849 8.53333,-1.5275 l 5.33334,-1.3503 -8,0.3292 c -4.4,0.181 -6.8,0.074 -5.33334,-0.2377 4.15383,-0.883 5.15232,-2.5177 1.54667,-2.5322 -4.06318,-0.016 -14.33489,-2.7489 -15.7853,-4.1993 -1.4134,-1.4134 -1.59196,-1.4247 7.3057,0.4606 7.44354,1.5772 17.5996,1.2005 17.5996,-0.6528 0,-0.511 -0.4447,-0.9292 -0.98822,-0.9292 -0.54351,0 -2.29126,-2.6633 -3.88387,-5.9185 -2.74599,-5.6126 -2.86326,-6.481 -2.26884,-16.8 0.34475,-5.9848 1.86296,-16.6415 3.3738,-23.6815 1.51084,-7.04 3.45161,-18.7551 4.31281,-26.0335 1.50433,-12.7138 2.55214,-17.1951 2.746,-11.7443 l 0.0917,2.5778 0.83554,-2.7569 c 0.45954,-1.5162 1.18449,-7.8765 1.61099,-14.1338 0.84538,-12.4028 2.70343,-16.5559 2.70343,-6.0426 0,4.079 0.39996,6.2787 1.06667,5.8666 0.6468,-0.3997 1.09618,-8.7169 1.14164,-21.1296 0.0412,-11.25869 0.44531,-21.41812 0.89795,-22.57649 0.74677,-1.91106 0.93828,-1.81227 2.06776,1.06667 1.06783,2.72178 1.17192,2.02561 0.73226,-4.89742 -0.53805,-8.4722 -2.6186,-18.78982 -5.35017,-26.5319 -1.89325,-5.36603 -1.89754,-5.39788 -0.72732,-5.39788 0.49249,0 1.47047,1.26203 2.17327,2.8045 3.48831,7.65602 1.0697,-4.35392 -4.86098,-24.13783 C 744.91448,889.70859 713.6054,821.44826 693.31822,788.26592 661.98749,737.0204 643.7982,715.21761 596.80003,672.57334 c -20.6075,-18.69842 -31.22745,-30.17734 -35.3695,-38.23028 -2.19318,-4.26397 -2.33086,-4.35017 -2.89177,-1.81046 -0.53097,2.40412 -2.8054,50.01009 -2.8054,58.71963 0,2.68777 -0.3033,3.2704 -1.22345,2.35025 -0.83198,-0.83198 -1.48846,-12.07784 -2.0517,-35.14667 -0.62937,-25.77753 -1.37178,-37.50902 -3.09181,-48.85655 -1.24495,-8.21333 -2.46549,-18.91167 -2.71231,-23.77409 -0.55886,-11.00961 -7.12016,-31.53254 -13.42106,-41.97939 -2.35088,-3.89775 -5.45546,-10.34318 -6.89906,-14.32317 -3.12077,-8.6039 -3.13709,-8.62458 -5.35527,-6.78365 -3.93508,3.26583 -11.58521,6.97932 -17.51201,8.50061 -2.64,0.67763 -7.36371,2.63354 -10.49713,4.34646 -7.32047,4.00182 -11.42227,4.87326 -31.8749,6.7719 -16.79208,1.55882 -22.74541,3.04555 -30.16131,7.53221 -2.05333,1.24228 -5.89333,3.0987 -8.53333,4.12538 -2.64,1.02667 -7.80302,3.5056 -11.47338,5.50872 -6.11646,3.3381 -7.40721,3.63629 -15.46667,3.57315 -4.8363,-0.0379 -12.07989,0.41993 -16.09686,1.01738 -7.55572,1.12377 -10.97444,0.5233 -13.35558,-2.3458 -2.36763,-2.85281 -11.31459,-8.10333 -16.43319,-9.6438 -2.73612,-0.82346 -7.039,-1.23864 -9.71312,-0.93723 -6.87336,0.77472 -9.62889,-0.23833 -11.84591,-4.3551 -1.98982,-3.69487 -4.15636,-4.64356 -16.01529,-7.0128 -2.34667,-0.46883 -6.18667,-1.58049 -8.53334,-2.47036 -2.34666,-0.88987 -6.66666,-2.51775 -9.6,-3.61751 -2.93333,-1.09976 -5.96055,-2.83957 -6.72715,-3.86623 -0.7666,-1.02667 -1.9666,-1.87136 -2.66666,-1.87709 -2.69171,-0.022 -12.12104,-5.29785 -15.98068,-8.94137 -3.51561,-3.31874 -4.31326,-3.64495 -6.13334,-2.50829 -1.23707,0.77256 -2.09217,2.48063 -2.09217,4.17912 0,1.5799 -1.37919,5.18444 -3.06488,8.01008 -12.22953,20.49991 -29.90668,48.6471 -33.5844,53.47619 -8.40466,11.03587 -8.14901,10.38135 -3.0359,7.77283 2.46685,-1.25849 4.48518,-2.10729 4.48518,-1.88622 0,0.22107 -2.47225,4.67083 -5.49389,9.88835 -5.40365,9.33059 -12.63944,24.01273 -12.63944,25.64671 0,0.45841 2.69012,-1.79013 5.97804,-4.99676 l 5.97804,-5.83023 -2.384,4.8 c -1.3112,2.64 -3.32098,6.24 -4.46619,8 l -2.0822,3.2 2.52823,-2.93333 c 1.39052,-1.61333 2.85198,-2.93333 3.24769,-2.93333 0.39571,0 -0.90415,3.79336 -2.88859,8.42969 -3.60405,8.42034 -8.08855,22.87655 -7.99469,25.77168 0.0273,0.84257 1.26037,-0.79499 2.74013,-3.63903 1.47975,-2.84404 2.88843,-4.97301 3.13039,-4.73105 0.24196,0.24196 -0.52402,5.41259 -1.70218,11.49028 -1.59105,8.20765 -1.82371,11.24714 -0.90441,11.8153 0.71325,0.44081 1.84546,6.90734 2.67202,15.26105 1.26707,12.8057 5.68072,43.57242 7.51737,52.40207 0.58413,2.8082 0.76141,2.9388 1.44793,1.06667 0.55926,-1.52507 1.01383,-0.30855 1.59431,4.26666 0.44659,3.52 1.19619,7.36 1.66577,8.53334 0.7747,1.93572 0.86156,1.88632 0.93773,-0.53334 0.0462,-1.46666 0.498,-3.32018 1.00407,-4.11893 0.61135,-0.96493 1.33462,1.00375 2.15533,5.86666 2.35137,13.93243 5.72561,25.52281 13.15228,45.17749 19.69721,52.12865 20.10303,54.2074 23.22016,118.94144 1.18648,24.64 2.87149,57.04 3.74445,71.99999 2.55385,43.76563 3.07294,69.56933 1.663,82.66663 -2.4586,22.8388 -8.05393,44.758 -13.57678,53.186 -1.48465,2.2656 -2.29703,4.4924 -1.8053,4.9485 0.49174,0.4562 3.77407,1.6361 7.29407,2.6222 7.64124,2.1406 24,9.8144 24,11.2583 0,0.5613 -2.52,0.01 -5.6,-1.2357 -19.88794,-8.0128 -36.47581,-8.9622 -52.41188,-2.9998 -7.8808,2.9486 -14.72045,9.8108 -17.77396,17.8326 -4.6679,12.263 -2.3412,30.8234 4.31019,34.3831 3.14419,1.6827 3.36513,1.1648 1.60774,-3.7693 -3.43843,-9.6539 -1.18631,-22.5816 5.05585,-29.0219 4.91368,-5.0696 5.39725,-4.2581 1.40912,2.3649 -2.00233,3.3252 -3.79735,8.0285 -4.17273,10.9333 -0.75089,5.8107 1.26977,15.8477 4.04239,20.0792 1.74973,2.6704 8.78432,6.5231 9.89058,5.4169 0.28969,-0.2897 -0.30262,-3.0236 -1.31626,-6.0754 -2.42871,-7.3122 -1.70378,-17.6447 1.58259,-22.5568 2.59589,-3.8801 2.59883,-3.509 0.0525,6.6288 -2.57722,10.2606 1.29033,19.8418 9.04198,22.4001 5.74069,1.8946 20.81526,1.2079 20.81526,-0.9482 0,-0.4211 -1.2,-2.3921 -2.66667,-4.3801 -1.96448,-2.6627 -2.66666,-4.951 -2.66666,-8.6904 0,-5.1308 1.72538,-10.5096 3.37121,-10.5096 1.13993,0 1.12499,0.3241 -0.17227,3.7361 -1.8333,4.822 -0.099,11.2954 4.18008,15.6022 7.48025,7.5289 22.84169,7.9228 37.00754,0.9489 8.58295,-4.2253 17.3207,-13.6294 22.81244,-24.5519 11.48869,-22.8499 21.25143,-64.7504 23.61094,-101.3353 1.21148,-18.7845 0.74425,-29.7747 -1.77499,-41.7508 -1.83696,-8.7326 -1.8688,-9.1312 -0.62265,-7.7959 0.85627,0.9176 4.92964,17.1613 7.34242,29.28 0.79587,3.9975 1.09615,1.8154 1.79586,-13.05 0.54561,-11.5914 1.21932,-17.6158 1.92145,-17.1818 0.67683,0.4183 0.89951,-0.57 0.59535,-2.6424 -0.31309,-2.1332 0.0153,-3.5029 0.92336,-3.8514 1.74716,-0.6704 1.86362,-4.5451 0.15374,-5.1151 -0.72637,-0.2421 -0.89963,-0.9943 -0.4111,-1.7848 1.67748,-2.7142 1.61653,-19.63387 -0.0888,-24.64113 -1.59681,-4.68869 -1.94935,-20.47351 -1.53173,-68.58279 0.0601,-6.92054 -0.38736,-13.51069 -0.99431,-14.64478 -0.60694,-1.13409 -0.7906,-3.30881 -0.40812,-4.83272 0.38247,-1.5239 0.22133,-3.81375 -0.3581,-5.08855 -0.57943,-1.2748 -1.95647,-5.18889 -3.06008,-8.69797 -1.10361,-3.50909 -4.53085,-10.40087 -7.61609,-15.31508 -3.08523,-4.91421 -5.60951,-9.46308 -5.60951,-10.1086 0,-2.22994 9.08075,7.75751 13.33333,14.66464 2.34667,3.81151 4.69375,6.94708 5.21574,6.96794 0.52199,0.0209 1.58673,0.87792 2.36608,1.90459 1.22782,1.61746 1.42153,0.9914 1.45092,-4.68948 0.0452,-8.72731 -4.27754,-19.27908 -12.22219,-29.83449 -3.33238,-4.42747 -5.85387,-8.25494 -5.60331,-8.50549 0.25055,-0.25056 4.58276,3.59799 9.62712,8.55233 7.44548,7.31259 9.88618,10.55455 12.96861,17.22606 3.32892,7.20501 3.80537,9.28455 3.86464,16.86795 0.0519,6.64515 0.30506,8.05606 1.09218,6.08791 1.46178,-3.65512 0.30963,-29.18804 -1.68936,-37.43812 -3.41733,-14.10374 -11.81336,-33.27288 -17.72746,-40.47393 -4.51727,-5.50026 -2.81425,-5.27262 3.98017,0.53204 6.72772,5.74767 14.88247,15.61223 15.74047,19.04078 l 0.55918,2.23444 -1.8114,-2.17968 c -6.1201,-7.36441 -8.92532,-10.48851 -8.5785,-9.55365 0.21765,0.58666 2.37977,5.14666 4.80473,10.13333 2.42495,4.98667 5.24017,12.42667 6.25605,16.53333 2.38444,9.63904 2.75553,26.97667 0.98174,45.86667 -0.77125,8.21333 -1.69654,23.57333 -2.05621,34.13333 -0.35967,10.56 -0.85912,20.52 -1.1099,22.13333 -0.25078,1.61333 -0.0174,2.93333 0.51868,2.93333 0.53605,0 1.29855,-2.16 1.69444,-4.8 0.39589,-2.64 1.14531,-4.8 1.66536,-4.8 1.26057,0 1.22697,0.50862 -0.82874,12.54482 -1.36382,7.98521 -1.73982,16.48986 -1.62529,36.7621 0.1391,24.62234 0.33342,27.10114 2.92624,37.32974 1.52748,6.0259 2.99075,11.1696 3.25171,11.4306 0.26097,0.261 0.21073,-3.0974 -0.11165,-7.4631 -0.69781,-9.4498 0.92995,-7.1328 2.1034,2.9942 0.46908,4.0482 1.19491,6.4038 1.8487,5.9997 0.67207,-0.4153 0.80414,0.1926 0.3516,1.6184 -0.82119,2.5874 1.27737,10.0193 2.59859,9.2027 1.06177,-0.6562 2.5196,6.543 1.61978,7.999 -0.35641,0.5767 0.0622,1.0485 0.93018,1.0485 0.90116,0 1.89309,1.4337 2.31223,3.342 0.47529,2.164 1.02215,2.8758 1.55141,2.0195 0.64029,-1.036 0.99145,-1.041 1.62072,-0.023 0.44808,0.725 0.15327,1.7188 -0.66667,2.2472 -1.11479,0.7185 -1.16065,1.148 -0.18979,1.7775 0.70411,0.4566 1.75721,2.0166 2.34023,3.4667 0.84697,2.1066 0.95939,1.5646 0.5593,-2.6968 -0.48829,-5.2007 -0.41447,-5.1013 2.97013,4 1.90898,5.1334 3.80907,9.3334 4.22242,9.3334 0.41336,0 2.42844,-2.0464 4.47796,-4.5476 2.94141,-3.5896 3.9859,-6.1175 4.95834,-12 0.67757,-4.0988 1.21964,-9.1174 1.20459,-11.1523 -0.0155,-2.0939 0.32201,-3.1346 0.77748,-2.3977 0.75802,1.2265 3.69547,-7.7525 3.27209,-10.0019 -0.43031,-2.2862 0.14253,-4.782 0.97894,-4.265 0.4996,0.3087 1.77733,-2.3087 2.83942,-5.8165 1.06208,-3.5078 2.57332,-6.9109 3.35831,-7.5624 0.78499,-0.6515 1.42726,-2.4528 1.42726,-4.003 0,-1.5502 1.04184,-4.7314 2.31519,-7.0694 1.27336,-2.338 2.62309,-5.9309 2.99939,-7.9842 0.41775,-2.2795 1.22686,-3.6131 2.07767,-3.4246 1.00205,0.222 1.1962,-0.47726 0.69119,-2.4894 -0.39793,-1.58547 -0.28313,-2.53906 0.26489,-2.20036 3.74747,2.31606 5.98826,-50.5988 2.95399,-69.75641 -1.98406,-12.52686 -1.99997,-12.79592 -0.75677,-12.79592 0.52006,0 1.26947,2.16 1.66536,4.8 0.39589,2.64 1.15839,4.8 1.69445,4.8 0.53605,0 0.76945,-1.32 0.51867,-2.93333 -0.25078,-1.61333 -0.75023,-11.57333 -1.1099,-22.13333 -0.35967,-10.56 -1.28496,-25.92 -2.0562,-34.13333 -1.7738,-18.89 -1.40271,-36.22764 0.98173,-45.86667 1.01588,-4.10667 3.8311,-11.54666 6.25606,-16.53333 2.42495,-4.98667 4.58707,-9.54667 4.80472,-10.13333 0.34682,-0.93487 -2.4584,2.18924 -8.5785,9.55365 l -1.8114,2.17968 0.55918,-2.23444 c 0.858,-3.42855 9.01275,-13.29312 15.74047,-19.04078 6.79442,-5.80466 8.49744,-6.0323 3.98017,-0.53204 -5.9141,7.20105 -14.31013,26.37019 -17.72746,40.47392 -1.99899,8.25009 -3.15114,33.78301 -1.68936,37.43813 0.78712,1.96814 1.04024,0.55724 1.09218,-6.08791 0.0593,-7.5834 0.53572,-9.66294 3.86464,-16.86796 3.08243,-6.67151 5.52313,-9.91347 12.96861,-17.22606 5.04436,-4.95433 9.37657,-8.80288 9.62712,-8.55232 0.25056,0.25055 -2.27093,4.07802 -5.60331,8.50548 -7.94464,10.55542 -12.26735,21.10719 -12.22219,29.8345 0.0294,5.68087 0.2231,6.30694 1.45092,4.68948 0.77936,-1.02667 1.84409,-1.88374 2.36608,-1.90459 0.52199,-0.0209 2.86908,-3.15643 5.21574,-6.96794 4.25258,-6.90713 13.33334,-16.89459 13.33334,-14.66464 0,0.64552 -2.52429,5.19439 -5.60952,10.1086 -3.08524,4.9142 -6.51248,11.80599 -7.61609,15.31508 -1.10361,3.50908 -2.48065,7.42317 -3.06008,8.69797 -0.57943,1.2748 -0.74057,3.56465 -0.35809,5.08855 0.38247,1.52391 0.19881,3.69863 -0.40813,4.83272 -0.60695,1.13408 -1.05439,7.72424 -0.99431,14.64478 0.43046,49.58921 0.0864,63.83122 -1.66561,68.94148 -1.2987,3.78811 -1.59188,6.98771 -1.10347,12.04297 0.75937,7.86002 0.003,11.49333 -2.2144,10.64229 -1.10008,-0.42213 -1.50802,0.34445 -1.51997,2.8562 -0.013,2.73593 -0.25009,3.10824 -1.16729,1.83318 -0.94516,-1.31391 -1.03216,-1.23645 -0.48658,0.43318 0.89653,2.74365 -1.31054,9.09061 -11.90427,34.23345 -10.83881,25.7246 -13.33626,34.0112 -17.3597,57.6 -5.38794,31.5887 -6.77274,37.1152 -13.57738,54.1848 -2.05763,5.1616 -3.4854,9.6405 -3.17282,9.9531 0.31258,0.3126 1.68944,-0.071 3.05968,-0.8514 1.77878,-1.0137 7.22023,-1.4198 19.02469,-1.4198 15.48061,0 17.11063,0.198 25.6,3.1104 10.50655,3.6044 9.96607,4.6292 -1.24863,2.3676 -14.72369,-2.9693 -29.05997,-3.2761 -39.81804,-0.8521 -5.28,1.1897 -11.42864,2.4627 -13.66364,2.8289 -11.75845,1.9264 -22.82133,24.1099 -20.5526,41.2125 0.70896,5.3444 2.55099,10.5327 3.73947,10.5327 0.35611,0 0.67775,-4.44 0.71477,-9.8667 0.037,-5.4266 0.68653,-11.7294 1.44338,-14.0061 1.32184,-3.9762 7.90787,-12.3939 9.69704,-12.3939 0.47493,0 -0.74122,3.0788 -2.70257,6.8416 -8.7385,16.765 -4.66892,35.2325 8.57421,38.9092 4.86428,1.3505 10.05919,1.5044 11.87143,0.3518 0.93422,-0.5942 0.73873,-2.2933 -0.76518,-6.6503 -3.03673,-8.7979 -2.30343,-19.5518 1.703,-24.9744 2.32601,-3.1482 2.58669,-1.7171 0.86037,4.7236 -2.84801,10.6255 -0.0824,22.7125 6.05729,26.4726 1.26397,0.7742 4.46082,1.5837 7.1041,1.7991 2.64329,0.2154 5.07639,0.6621 5.4069,0.9926 0.33051,0.3305 3.77922,0.6009 7.6638,0.6009 5.20317,0 8.31604,-0.6319 11.82222,-2.4 z m 171.39277,-75.6819 c -7.33806,-8.605 -12.22331,-16.5707 -14.88697,-24.2744 -2.10154,-6.0779 -2.41248,-9.1077 -2.41278,-23.5104 -3.2e-4,-15.7321 0.15025,-16.9183 3.10717,-24.4784 4.58554,-11.724 12.61414,-22.7991 23.03898,-31.7811 4.94111,-4.2573 9.41382,-7.7405 9.93934,-7.7405 0.52552,0 -3.6361,4.3455 -9.24803,9.6566 -5.61194,5.3112 -12.11359,12.517 -14.4481,16.0129 -13.22961,19.8115 -15.38767,46.3203 -5.43377,66.7466 2.32713,4.7754 6.92456,12.1249 10.2165,16.3322 7.02842,8.9826 7.12331,11.2399 0.12766,3.0365 z M 386.21755,1051.111 c 0.0512,-1.2426 0.30394,-1.4953 0.64445,-0.6444 0.30813,0.77 0.27023,1.69 -0.0842,2.0444 -0.35445,0.3545 -0.60655,-0.2755 -0.56024,-1.4 z m 185.5158,-59.51712 c 0,-1.86073 9.22022,-17.07216 14.95525,-24.67303 8.52569,-11.29943 26.1115,-28.71048 34.24871,-33.90835 8.10341,-5.17629 19.82584,-10.93672 27.18095,-13.35678 7.24932,-2.38527 18.95503,-4.07091 16.41509,-2.36381 -0.88,0.59145 -2.95937,1.08272 -4.62083,1.0917 -7.76619,0.042 -28.16323,9.03343 -40.92023,18.03849 -15.34135,10.82933 -35.05723,33.62352 -41.8018,48.32848 -1.53476,3.34619 -3.39048,6.33112 -4.12381,6.63319 -0.73333,0.30207 -1.33333,0.39662 -1.33333,0.21011 z m 21.36726,-41.74151 c -0.0551,-1.75495 6.78739,-11.37439 12.66637,-17.80693 7.90261,-8.64671 19.42943,-17.06035 31.05463,-22.66735 8.5121,-4.10551 11.79078,-5.08466 20.26667,-6.05245 11.79035,-1.34624 29.45789,-0.49255 37.16334,1.79572 7.17095,2.12954 8.07571,3.88839 1.04634,2.03408 -29.10844,-7.67866 -56.62983,-1.5719 -79.66687,17.67739 -5.21196,4.355 -12.29246,12.47501 -20.89891,23.96711 -0.87871,1.17334 -1.61292,1.64693 -1.63157,1.05243 z m 91.41052,228.16983 c -0.35445,-0.3545 -1.27445,-0.3924 -2.04445,-0.084 -0.85091,0.3405 -0.59816,0.5933 0.64445,0.6445 1.12444,0.046 1.75444,-0.2058 1.4,-0.5602 z m 65.35556,-1.5492 c 0.88,-0.1057 0.1996,-0.4954 -1.51201,-0.8659 -5.51377,-1.1939 -4.31459,-3.0346 2.79582,-4.2916 3.6939,-0.653 8.15619,-1.5907 9.91619,-2.0839 3.1101,-0.8715 3.0412,-0.9314 -2.45251,-2.1309 -3.10887,-0.6787 -6.70887,-1.2808 -8,-1.3378 -1.29112,-0.057 4.25938,-1.237 12.33444,-2.6222 17.36103,-2.9781 20.15676,-4.0687 13.44028,-5.243 l -4.65555,-0.814 4.93075,-1.33 c 6.70343,-1.8082 18.78663,-6.5699 23.33592,-9.1961 2.05333,-1.1854 2.94875,-1.9221 1.98981,-1.6372 -5.39614,1.6034 -24.60679,5.0848 -25.13627,4.5553 -0.34405,-0.3441 0.0432,-0.8426 0.86046,-1.108 0.8173,-0.2653 6.29498,-1.9785 12.17262,-3.8071 11.152,-3.4696 25.09438,-10.3036 25.88995,-12.6904 0.3618,-1.0854 -0.83934,-1.2243 -5.52379,-0.639 -3.29236,0.4113 -5.98611,0.5131 -5.98611,0.2261 0,-0.2869 3.84,-3.0428 8.53333,-6.124 9.4455,-6.2012 11.33283,-8.9045 3.46667,-4.9655 -6.59609,3.303 -16.21796,6.4364 -17.08919,5.5652 -0.37637,-0.3764 0.49472,-0.9914 1.93577,-1.3666 4.49778,-1.1711 20.70168,-9.668 25.09462,-13.1588 4.18629,-3.3267 14.58852,-14.9668 13.94774,-15.6076 -0.18623,-0.1862 -2.93742,1.094 -6.11376,2.8451 -6.62651,3.6529 -15.33702,6.7898 -17.16357,6.1809 -0.68504,-0.2283 1.3571,-1.8898 4.53809,-3.692 6.39265,-3.622 16.69033,-12.7163 15.61572,-13.7909 -0.37637,-0.3763 -2.98256,0.7744 -5.79153,2.5571 -5.51203,3.4983 -17.52148,8.7992 -19.74175,8.7139 -0.75101,-0.029 1.95702,-1.757 6.01784,-3.8404 13.92618,-7.1448 28.93933,-25.1133 34.68284,-41.5101 l 1.09651,-3.1303 -1.83331,2.6666 c -3.95845,5.7579 -13.46077,14.8771 -21.63406,20.7619 -4.71836,3.3972 -8.8226,5.9331 -9.12053,5.6351 -0.29793,-0.2979 1.76086,-2.2407 4.5751,-4.3172 2.81424,-2.0766 6.63869,-5.3741 8.49878,-7.3277 3.5555,-3.7343 12.29615,-18.0962 11.4987,-18.8936 -0.2557,-0.2557 -3.22845,2.1517 -6.60612,5.3497 -6.4496,6.1066 -11.47019,10.0486 -16.80789,13.1971 -1.76,1.0381 0.78657,-1.8438 5.65904,-6.4043 12.20198,-11.4208 19.97144,-23.35 23.4772,-36.0468 1.43224,-5.1872 0.76994,-5.0004 -2.05385,0.5792 -2.95691,5.8426 -6.36702,10.6709 -7.05244,9.9855 -0.29553,-0.2955 1.21785,-4.6238 3.36307,-9.6184 2.14522,-4.9946 4.59104,-12.3404 5.43516,-16.3241 2.72266,-12.849 1.53547,-19.01898 -1.49628,-7.7764 -2.02674,7.5158 -5.64917,17.0667 -6.47298,17.0667 -0.4112,0 0.1406,-3.48 1.22622,-7.7333 2.65402,-10.3981 4.12912,-26.56205 3.13931,-34.40002 l -0.80822,-6.4 -0.83119,7.54891 c -0.81449,7.39734 -2.7331,13.19721 -2.76871,8.36967 -0.0897,-12.16374 -5.05557,-43.24374 -7.97272,-49.89911 l -1.46959,-3.35281 -0.19333,5.86667 c -0.36117,10.95938 -1.54199,11.99228 -2.9789,2.60575 -0.72066,-4.70762 -2.26388,-11.65976 -3.42939,-15.4492 l -2.1191,-6.88988 0.5966,5.74956 c 0.32812,3.16226 0.84308,7.24226 1.14435,9.06667 0.38918,2.35673 0.25345,2.85387 -0.4688,1.7171 -0.88308,-1.38989 -11.92545,-40.62279 -11.92545,-42.3704 0,-0.3585 -0.30637,-0.34546 -0.68081,0.029 -0.37444,0.37444 -0.61115,5.13444 -0.52601,10.57778 0.0969,6.19838 -0.19981,9.29903 -0.79409,8.29697 -0.84933,-1.43214 -1.65737,-7.26467 -5.45423,-39.36905 -0.5834,-4.93297 -1.30466,-9.21297 -1.6028,-9.51111 -0.29813,-0.29813 -0.57249,7.33794 -0.60967,16.96905 -0.0406,10.51348 -0.42435,16.62979 -0.96033,15.30567 -1.91047,-4.71982 -3.53093,-31.09142 -2.87843,-46.8438 0.90724,-21.90197 2.94063,-31.39607 15.02452,-70.15076 0.86889,-2.78666 1.37046,-5.06666 1.11459,-5.06666 -0.25586,0 -1.88982,2.76 -3.631,6.13333 -1.74119,3.37333 -3.18888,5.76571 -3.2171,5.3164 -0.0282,-0.44932 2.53792,-7.64932 5.70254,-16 9.053,-23.88876 12.65056,-35.77743 8.51997,-28.15543 -2.50188,4.6166 -2.83581,2.79359 -1.07146,-5.84939 4.44816,-21.79005 7.84863,-61.91478 5.10334,-60.2181 -0.70474,0.43555 -1.24174,3.38343 -1.24532,6.83614 -0.0113,10.95698 -5.32407,40.02891 -7.00742,38.34556 -0.2681,-0.26809 0.23345,-3.79969 1.11456,-7.84798 3.10406,-14.2618 4.32469,-38.26149 2.85549,-56.14427 -0.73576,-8.95561 -1.79194,-16.73892 -2.34705,-17.29625 -0.63485,-0.6374 -1.06436,4.11135 -1.15771,12.79999 l -0.14843,13.81334 -0.89406,-11.2 c -1.95138,-24.44501 -5.13184,-38.50354 -11.5622,-51.10807 -3.53851,-6.93607 -3.56661,-4.67711 -0.0526,4.23266 1.72277,4.36814 3.14884,8.5704 3.16903,9.33836 0.0774,2.94156 -2.01178,-0.0603 -3.76427,-5.40883 -7.57961,-23.13281 -25.97559,-45.92482 -45.79901,-56.74347 -5.78438,-3.15683 -6.05839,-3.4736 5.66241,6.54613 5.8344,4.98762 6.91275,7.54673 1.599,3.79469 -8.64001,-6.10072 -24.52817,-12.18527 -36.80977,-14.09671 -6.55494,-1.02017 -23.51828,-0.11034 -24.96778,1.33915 -0.28366,0.28367 1.78643,0.84222 4.60019,1.24123 6.13467,0.86994 17.27934,3.83481 17.84303,4.74688 0.22139,0.35822 -5.19163,0.66762 -12.02894,0.68754 -11.10329,0.0323 -13.07218,0.33303 -18.42826,2.81424 -3.29823,1.52792 -6.35616,3.35951 -6.79539,4.0702 -0.61169,0.98974 -0.28558,1.01761 1.39332,0.11909 4.84139,-2.59103 4.54103,-0.95872 -0.39232,2.13208 -6.59139,4.1296 -11.71667,8.89809 -14.90188,13.86453 -2.83156,4.41501 -5.84028,13.81737 -5.84028,18.25108 0,2.95763 0.15398,2.87621 6.15095,-3.25253 7.12493,-7.28148 16.04212,-12.1652 27.82929,-15.2414 9.40803,-2.4553 17.30813,-2.06111 26.32804,1.31366 5.79512,2.16824 16.04183,9.23161 14.96061,10.31282 -0.33585,0.33585 -1.69016,-0.40352 -3.00957,-1.64304 -4.53201,-4.2576 -13.65091,-7.57936 -22.92599,-8.35129 -5.72834,-0.47675 -8.8,-0.35412 -8.8,0.35131 0,0.59604 2.04,1.40633 4.53334,1.80065 8.31179,1.31451 22.02962,8.8485 29.08555,15.97411 5.93182,5.99039 12.42876,16.41136 15.39688,24.69631 1.12599,3.143 1.12388,3.14522 -0.74328,0.78138 -1.02987,-1.30382 -4.25845,-5.78592 -7.17463,-9.96024 -6.08,-8.7031 -7.46928,-8.32927 -2.88541,0.77641 4.7644,9.46427 9.35573,25.02065 11.75285,39.82107 2.46273,15.20551 3.3695,25.6 2.23324,25.6 -0.42735,0 -1.48672,-3.72 -2.35416,-8.26667 l -1.57718,-8.26667 -0.15442,8.53334 c -0.32021,17.69474 -4.87159,43.27051 -12.04307,67.6741 -4.76343,16.20934 -6.67126,19.78888 -5.71669,10.72589 0.37528,-3.56306 -0.85682,0.20647 -3.13784,9.6 -4.60907,18.9807 -6.92112,27.04961 -7.56598,26.40475 -0.27017,-0.27016 0.26062,-3.80176 1.17953,-7.84798 0.91891,-4.04622 1.88914,-8.31677 2.15606,-9.4901 0.26692,-1.17334 -0.51096,0.0267 -1.72862,2.66666 -4.43867,9.62343 -8.64302,28.62819 -9.20301,41.6 l -0.52955,12.26667 8.20316,18.13333 c 18.4291,40.73804 29.16421,70.57335 34.33441,95.42308 2.48202,11.92942 2.78041,15.74307 2.75757,35.24358 -0.0292,24.92758 -1.57702,37.46378 -7.30914,59.19868 -9.32717,35.3666 -14.47273,57.1054 -15.02277,63.468 -1.23364,14.27 3.50074,21.3 14.395,21.3749 l 6.0515,0.042 -4.53334,2.7334 c -2.49333,1.5033 -4.53333,3.1493 -4.53333,3.6576 0,0.5084 -1.32,1.6404 -2.93333,2.5157 -1.61334,0.8752 -2.30501,1.6106 -1.53705,1.6341 0.76795,0.023 1.06721,0.5751 0.66501,1.2259 -0.51862,0.8391 0.62633,0.9623 3.93704,0.4235 6.04242,-0.9832 4.86347,0.1931 -5.78235,5.7697 -4.57453,2.3963 -7.81453,4.3569 -7.2,4.3569 1.87492,0 1.24282,4.2836 -0.74932,5.078 -2.22427,0.8869 4.98428,2.1876 12.8,2.3096 3.0576,0.048 5.06667,0.5648 5.06667,1.3042 0,0.874 -2.53481,1.0462 -8.84624,0.6008 -8.58788,-0.6061 -11.95376,0.081 -11.95376,2.4407 0,0.6295 -0.72,1.5997 -1.6,2.1559 -1.42223,0.8991 -1.42223,1.0208 0,1.0954 0.92796,0.049 0.59194,0.4891 -0.8,1.0486 -3.3367,1.3412 -3.02443,3.9972 0.53333,4.5361 2.44466,0.3704 2.28917,0.471 -0.93333,0.6042 -5.90274,0.244 -10.56426,1.3802 -9.92254,2.4185 0.31689,0.5127 -0.68292,1.5059 -2.2218,2.2071 -1.92031,0.8749 -2.63968,1.8801 -2.29335,3.2045 0.35656,1.3635 -0.092,1.9297 -1.52884,1.9297 -1.11841,0 -2.03347,0.6961 -2.03347,1.5468 0,2.3921 11.51191,2.6025 28.8,0.5263 z m -537.72561,-39.426 c 2.99355,-7.2333 9.31353,-16.748 10.40174,-15.6598 0.2367,0.2367 -1.79201,4.608 -4.50825,9.714 -2.71623,5.106 -4.69054,9.5316 -4.38736,9.8348 0.30318,0.3032 2.39659,-0.5929 4.65202,-1.9912 5.79879,-3.5953 9.81985,-5.0728 19.28596,-7.0862 l 8.28148,-1.7615 5.20954,-10.307 c 2.95225,-5.841 4.93105,-11.0327 4.56681,-11.9819 -0.82099,-2.1395 -6.2463,-2.1597 -16.15774,-0.06 -14.01793,2.9693 -25.26238,10.664 -29.35097,20.0852 -2.18315,5.0305 -3.7559,14.9392 -2.65416,16.7219 0.95783,1.5498 0.82109,1.77 4.66093,-7.5081 z m 51.25547,-87.1947 c 0.048,-11.5788 -0.60248,-30.1724 -1.44561,-41.319 -0.84313,-11.14669 -2.13161,-32.38669 -2.8633,-47.20002 -0.73169,-14.81334 -1.69124,-26.93334 -2.13235,-26.93334 -1.25531,0 -10.08217,24.24928 -13.24358,36.38296 -1.8337,7.03785 -3.61518,22.28371 -2.60386,22.28371 0.38582,0 1.56729,-1.92 2.62549,-4.26667 1.0582,-2.34667 2.2111,-4.26678 2.562,-4.26692 0.3509,-1.5e-4 0.46864,7.92138 0.26164,17.60338 -0.37317,17.4544 1.23968,35.7302 3.1532,35.7302 0.52607,0 1.02969,-0.84 1.11915,-1.8667 0.1475,-1.6928 0.57335,0.9547 2.53074,15.7334 0.66589,5.0276 7.88324,20.4482 9.1919,19.6394 0.41647,-0.2574 0.79653,-9.9416 0.84458,-21.5204 z m 162.61046,-32.8411 c 0.36426,-0.9492 0.18543,-1.3774 -0.41922,-1.0037 -0.57994,0.3584 -1.05445,1.1033 -1.05445,1.6554 0,1.5343 0.76455,1.1962 1.47367,-0.6517 z m 336.79204,-63.6957 c -1.05346,-1.04562 -1.17598,-0.9231 -0.59712,0.59711 0.40057,1.05197 0.99701,1.64397 1.32542,1.31556 0.32841,-0.32841 6.8e-4,-1.18912 -0.7283,-1.91267 z m 32,-372.26665 c -1.05346,-1.04561 -1.17598,-0.92309 -0.59712,0.59712 0.40057,1.05197 0.99701,1.64397 1.32542,1.31555 0.32841,-0.32841 6.8e-4,-1.18911 -0.7283,-1.91267 z M 406.93334,548.06841 c 3.52,-1.16308 13.73779,-5.90548 22.7062,-10.53867 l 16.3062,-8.42398 8.76047,0.002 c 12.0437,0.003 40.67939,-5.96567 42.51948,-8.86217 0.38079,-0.5994 1.48572,-0.78538 2.4554,-0.41328 1.03414,0.39684 1.49363,0.2406 1.11137,-0.3779 -0.36131,-0.58462 0.50635,-1.05445 1.94733,-1.05445 1.42945,0 3.17095,-0.68915 3.86999,-1.53144 0.69904,-0.84229 2.79781,-1.85779 4.66394,-2.25668 5.18698,-1.10871 25.59447,-17.08769 37.59164,-29.43412 17.94037,-18.46262 24.9856,-32.88531 29.88426,-61.17776 l 0.73874,-4.26666 2.21508,4.8 2.21508,4.8 0.89751,-9.06667 c 0.57095,-5.76768 0.48875,-11.16897 -0.2259,-14.84446 -1.28929,-6.63094 -0.62128,-8.47534 1.26229,-3.4852 1.89598,5.02303 2.9476,4.14169 2.9476,-2.47034 0,-3.22666 0.46811,-5.86666 1.04026,-5.86666 0.64888,0 0.68446,-0.93586 0.0946,-2.48738 -0.52014,-1.36806 -1.68239,-4.96806 -2.58278,-8 -1.76149,-5.9316 -0.7321,-7.57572 1.44795,-2.31262 1.45929,3.52303 3.21175,4.25799 3.17926,1.33333 -0.0114,-1.02667 -0.71619,-6.66667 -1.56618,-12.53333 -0.84999,-5.86667 -1.56066,-14.5936 -1.57926,-19.39319 -0.0301,-7.76619 0.49059,-10.12844 4.73156,-21.4657 2.62096,-7.00654 5.30264,-15.0796 5.9593,-17.94014 1.50308,-6.54778 2.9226,-35.59407 1.70258,-34.83846 -0.49833,0.30864 -2.25574,3.41505 -3.90533,6.90312 -2.46324,5.20852 -2.82556,6.94766 -2.02727,9.73112 1.46606,5.11186 1.16902,13.77662 -0.64892,18.92923 -1.74074,4.93377 -6.74352,12.19847 -7.7247,11.21728 -0.32827,-0.32826 0.22585,-1.50593 1.23138,-2.61703 2.65225,-2.9307 5.98091,-12.31939 5.98091,-16.86952 0,-2.15623 -0.75395,-6.92671 -1.67545,-10.60107 l -1.67544,-6.68065 4.22844,-5.65416 c 24.81151,-33.1773 35.27527,-113.38603 17.37319,-133.17218 -4.60143,-5.08569 -10.46717,-6.57718 -19.99238,-5.08348 -17.61379,2.76211 -36.46238,15.00877 -74.76264,48.57618 -9.33416,8.18072 -21.73922,18.6233 -27.5668,23.20573 -12.97267,10.20088 -21.97523,18.75285 -26.34932,25.03051 -4.26764,6.12489 -4.97307,4.01679 -1.11313,-3.3265 1.64338,-3.12643 3.15072,-6.04442 3.34964,-6.48442 0.19891,-0.44 -2.43834,-0.80177 -5.86056,-0.80393 -3.42222,-0.002 -14.62222,-1.67012 -24.88889,-3.70657 -33.46089,-6.63713 -56.04425,-7.18203 -87.40955,-2.10908 -5.33911,0.86354 -11.60198,1.26713 -13.91748,0.89687 l -4.21001,-0.67321 3.1687,5.85037 c 1.74278,3.2177 3.43888,8.19678 3.76911,11.06462 l 0.60042,5.21427 -4.52691,-8.39966 c -5.42506,-10.06617 -13.6669,-18.99403 -41.81652,-45.29718 -38.30667,-35.79395 -49.0629,-44.52705 -61.05143,-49.56827 -9.65532,-4.0601 -17.40226,-5.19329 -23.9291,-3.50025 -6.7729,1.75687 -9.91208,4.6614 -13.90012,12.86113 -10.32339,21.22569 -10.60968,53.10259 -0.88168,98.17089 3.0035,13.91475 3.19012,16.06105 2.73597,31.46667 -0.48346,16.40032 -0.45417,16.66555 3.64061,32.96891 2.35626,9.38146 4.12799,19.01136 4.12799,22.43695 0,5.50223 -4.4063,35.40217 -5.91836,40.16044 -0.39081,1.22981 0.80126,0.45257 3.01575,-1.96631 2.01411,-2.2 3.9453,-4 4.29153,-4 0.34623,0 -0.30933,2.72877 -1.4568,6.06394 -1.14746,3.33517 -1.65698,6.33517 -1.13226,6.66667 0.52988,0.33476 0.0193,4.3161 -1.14841,8.955 -1.9868,7.89283 -1.88962,11.58675 0.21521,8.18106 1.75004,-2.83163 2.06832,-0.49024 0.92855,6.83076 -0.81263,5.21967 -0.80217,7.58894 0.0372,8.42831 0.84567,0.84568 1.16759,0.66764 1.16759,-0.64574 0,-0.99733 0.39356,-1.81333 0.87458,-1.81333 0.48103,0 1.4604,4.3999 2.17639,9.77756 0.77438,5.81624 2.57866,12.83873 4.45344,17.33333 6.82409,16.36006 21.32412,36.86666 31.33085,44.30949 2.72645,2.02788 4.7538,4.21702 4.50524,4.86476 -0.24856,0.64775 1.77814,2.56413 4.50378,4.25863 2.72565,1.6945 6.79103,4.62162 9.03419,6.50472 2.24316,1.8831 6.67497,4.54755 9.84846,5.92099 3.1735,1.37345 5.77818,3.09718 5.7882,3.83051 0.01,0.73333 0.9382,1.33333 2.06264,1.33333 1.12445,0 2.20445,0.37641 2.40001,0.83646 0.47917,1.12726 15.1746,8.24868 21.15555,10.252 2.64,0.88427 6.84,1.93246 9.33333,2.32932 2.49334,0.39685 4.53334,1.14934 4.53334,1.67221 0,0.52286 1.23759,0.64004 2.7502,0.2604 3.82653,-0.9604 18.24271,1.60134 23.38313,4.15516 2.34667,1.16585 6.18667,3.43077 8.53334,5.03317 2.34666,1.60239 7.62666,4.58956 11.73333,6.63815 18.70992,9.33336 31.72005,10.98501 46.93333,5.95824 z m 18.13334,-27.11298 c -9.80842,-2.44941 -17.74699,-5.29043 -21.33334,-7.63467 -2.34666,-1.53391 -7.2308,-3.58779 -10.85364,-4.56418 -6.34903,-1.71112 -6.66111,-1.70112 -8.63924,0.27701 -1.12875,1.12875 -3.20461,2.24878 -4.61303,2.48895 -1.40841,0.24018 -6.88075,1.62098 -12.16075,3.06845 -5.28,1.44747 -11.76,2.65324 -14.4,2.67949 -7.17171,0.0713 -24.96126,-2.82094 -25.39733,-4.12914 -0.20925,-0.62775 -1.20635,-1.14137 -2.21578,-1.14137 -1.67597,0 -11.13983,-11.39009 -13.7373,-16.53333 -2.71861,-5.38308 -4.58932,-20.38734 -2.71332,-21.76248 0.47835,-0.35064 2.17594,-2.56538 3.77242,-4.92164 3.28318,-4.84567 12.57636,-14.29834 12.52306,-12.73797 -0.0192,0.56215 -2.15966,3.15577 -4.75657,5.76361 -2.59692,2.60783 -5.95483,7.11839 -7.46203,10.02345 -2.49223,4.80366 -2.67516,6.00158 -2.02019,13.22939 0.55283,6.10065 1.30347,8.64064 3.23027,10.93052 1.38056,1.64069 2.5101,3.67242 2.5101,4.51494 0,0.84253 2.28,3.15618 5.06667,5.14145 2.78666,1.98528 5.66227,4.18797 6.39024,4.89488 3.83391,3.723 26.86512,2.94828 39.74309,-1.33688 10.03892,-3.34046 15.75446,-7.04371 17.58298,-11.39249 1.65296,-3.93123 1.01943,-5.61811 -4.37651,-11.65322 -3.30116,-3.69219 -4.07515,-5.41762 -4.91013,-10.94596 -0.1833,-1.21358 -2.30087,-3.21174 -4.95562,-4.67619 -5.86274,-3.23407 -10.80739,-10.71319 -10.80739,-16.34691 0,-2.23181 0.42865,-4.05783 0.95255,-4.05783 1.10487,0 2.2402,2.58478 2.26379,5.1539 0.0394,4.29002 1.56891,4.62831 7.35453,1.62662 5.43754,-2.82109 5.80762,-2.86679 13.24482,-1.63559 4.55949,0.75481 11.17891,0.98703 16.38209,0.57471 8.43186,-0.66817 8.85018,-0.59169 12.20513,2.23131 3.20392,2.69592 3.57754,2.78159 4.80568,1.10201 1.28015,-1.7507 3.59141,-10.69962 3.59141,-13.90547 0,-0.85112 0.48,-1.54749 1.06667,-1.54749 1.43147,0 1.37566,13.97893 -0.0711,17.79722 -1.73061,4.56757 -5.22857,7.83675 -11.29356,10.55491 -4.53842,2.034 -5.72545,3.1534 -6.80156,6.41403 -0.71699,2.1725 -3.88292,6.5293 -7.03539,9.68177 -3.15248,3.15248 -5.73177,6.57454 -5.73177,7.60458 0,6.00299 11.24915,14.56335 25.06666,19.0752 7.32516,2.39189 10.48535,2.79801 22.32031,2.86842 9.98741,0.0594 13.90693,-0.27783 14.22222,-1.22372 0.23939,-0.71816 1.07657,-1.30575 1.8604,-1.30575 0.78384,0 4.0694,-2.41669 7.30126,-5.37043 4.50167,-4.11427 6.37329,-6.79634 8.00175,-11.46666 1.81791,-5.21366 2.13784,-5.62178 2.20986,-2.819 0.20203,7.86276 -10.96853,21.59998 -18.99839,23.36364 -7.24252,1.59072 -25.06548,2.87665 -28.38407,2.04791 z m -27.65583,-37.01822 c 2.2682,-1.95102 2.97269,-3.66877 3.39037,-8.26667 0.68966,-7.59199 2.71157,-9.93044 7.87264,-9.10515 2.95626,0.47272 4.51194,0.11657 6.41447,-1.46852 2.30582,-1.92107 2.34246,-2.0955 0.4471,-2.12808 -1.13553,-0.0195 -3.09743,-1.00579 -4.35979,-2.19171 -2.08183,-1.95578 -3.82358,-2.17029 -18.73542,-2.30748 -13.55915,-0.12474 -17.04773,0.16446 -19.90688,1.65029 -4.93093,2.56247 -4.44725,4.66899 1.26887,5.52617 6.65175,0.99749 8.52027,3.3897 7.6677,9.81671 -1.26126,9.50789 5.61125,14.16284 7.87978,5.3372 1.75847,-6.84129 1.94147,-7.0412 2.03278,-2.22057 0.0938,4.95522 0.92635,7.82057 2.27218,7.82057 0.49119,0 2.18147,-1.10824 3.7562,-2.46276 z m 75.14081,6.19609 c -0.19491,-1.17333 -0.291,-2.85333 -0.21352,-3.73333 0.24834,-2.8206 -4.3326,-11.01878 -9.68542,-17.33333 -2.85957,-3.37333 -4.72684,-6.13333 -4.14949,-6.13333 1.62776,0 12.4327,12.93291 13.91292,16.65298 0.72649,1.82581 1.13392,5.42581 0.9054,8 -0.22852,2.57419 -0.57497,3.72035 -0.76989,2.54701 z m -40.44115,-58.70378 c -2.73127,-3.11074 -3.3105,-4.6772 -3.3105,-8.95287 0,-6.45879 5.37695,-28.0503 8.90388,-35.75413 7.45161,-16.27647 24.44401,-24.83836 41.3698,-20.84485 7.23377,1.70675 19.48713,7.78244 21.50462,10.66282 1.87247,2.67332 6.95944,4.23673 14.08133,4.32771 l 5.34037,0.0682 -3.2,1.4662 c -1.76,0.80641 -5.36,2.09571 -8,2.86512 l -4.8,1.39891 -0.7528,6.82605 c -1.35887,12.32148 -8.90299,23.73305 -19.20294,29.0472 -6.85514,3.53683 -18.69138,3.87751 -33.68959,0.96966 -6.61289,-1.2821 -12.57527,-2.14715 -13.24972,-1.92234 -0.78834,0.26279 -1.13004,2.76646 -0.95682,7.01076 0.14819,3.6311 0.0452,6.602 -0.22885,6.602 -0.27405,0 -1.98801,-1.6967 -3.80878,-3.77045 z m 40.42284,-10.68134 c 5.50412,-1.09747 12.86516,-5.13564 16.74536,-9.18629 6.83193,-7.13205 10.9946,-22.37706 7.38017,-27.02858 -1.54293,-1.98565 -1.66337,-1.57953 -1.73972,5.86667 -0.0473,4.61194 -0.73363,9.35522 -1.62059,11.2 l -1.53856,3.2 0.78667,-3.73334 c 1.234,-5.85625 0.92356,-14.35737 -0.63026,-17.25924 -1.47314,-2.75121 -7.36259,-6.85013 -8.38025,-5.83247 -0.32055,0.32055 -0.0473,2.11894 0.60718,3.99644 0.6545,1.87749 1.18531,6.58199 1.17958,10.45444 -0.0266,17.96579 -14.52837,30.54135 -24.80964,21.51427 -7.85003,-6.89241 -12.43261,-21.4505 -9.44758,-30.01336 0.66583,-1.90997 1.00344,-3.67982 0.75027,-3.933 -0.96432,-0.96432 -10.21013,9.82319 -11.3315,13.22099 -2.56519,7.77259 4.00496,20.40678 12.99797,24.99467 4.60837,2.35101 11.31804,4.12083 13.71756,3.61829 0.88,-0.1843 3.28,-0.67007 5.33334,-1.07949 z m -2.26667,-36.3482 c 2.29341,-0.45868 3.33333,-1.28295 3.33333,-2.64208 0,-2.7595 -4.70403,-5.6138 -7.92113,-4.80636 -3.46589,0.86988 -4.72386,4.81044 -2.13905,6.7005 2.22778,1.62899 2.28808,1.63569 6.72685,0.74794 z m -118.83644,39.42943 c 0.41895,-4.17169 0.35615,-7.83556 -0.13956,-8.14192 -0.4957,-0.30636 -5.45889,0.4007 -11.02931,1.57126 -13.51956,2.84097 -27.34545,2.38736 -34.16502,-1.1209 -7.00355,-3.60291 -13.26484,-10.21798 -16.67068,-17.61261 -2.48955,-5.40521 -3.00208,-7.95096 -2.98594,-14.83111 0.0188,-8.02958 -0.0702,-8.32473 -2.67678,-8.87397 -4.22891,-0.89108 -11.68778,-3.70229 -12.25402,-4.61848 -0.28223,-0.45665 2.01608,-0.83027 5.10736,-0.83027 4.77724,0 7.43708,-0.94306 17.72845,-6.28572 l 12.10796,-6.28571 9.70699,0.009 c 8.42029,0.008 10.5025,0.39873 15.70847,2.94842 7.92663,3.88218 14.92684,11.48851 17.9428,19.49642 3.2703,8.6832 9.64667,36.26751 9.65165,41.75323 0.003,3.24133 -0.7213,5.29836 -2.62889,7.46667 -1.5246,1.73297 -2.64715,2.37656 -2.66667,1.52887 -0.0283,-1.23003 -0.31052,-1.23421 -1.76612,-0.0262 -1.58188,1.31285 -1.66622,0.77874 -0.97069,-6.14712 z m -19.16356,-10.88614 c 4.52196,-2.05946 11.14194,-8.69056 13.65662,-13.67957 3.14818,-6.24584 3.03073,-8.26923 -0.94083,-16.2079 -2.08818,-4.17404 -4.17511,-7.58916 -4.63763,-7.58916 -0.46251,0 -1.15323,3 -1.53493,6.66667 -0.90675,8.71028 -4.77786,16.4223 -11.31051,22.53284 -4.38493,4.10158 -5.96815,4.93383 -9.3859,4.93383 -2.73705,0 -4.937,-0.76933 -6.58177,-2.30166 -4.06068,-3.7831 -7.78611,-13.27277 -8.36014,-21.29548 l -0.51977,-7.26457 4.95942,-5.03049 c 6.06231,-6.14917 5.17877,-8.12175 -2.06678,-4.61425 -3.14422,1.52209 -6.25591,4.1884 -8.34204,7.14802 -3.12927,4.43952 -3.36449,4.57276 -3.95332,2.2394 -0.52357,-2.07477 -0.74752,-1.78241 -1.36783,1.78569 -0.93198,5.36085 1.62114,15.56183 5.28791,21.12786 2.91248,4.42105 10.31821,10.1397 15.70117,12.12433 5.19586,1.91565 14.53484,1.63853 19.39633,-0.57556 z m -26.33911,-8.40996 c -0.88169,-1.02667 -2.00822,-2.58667 -2.50341,-3.46667 -0.78512,-1.39526 -0.66194,-1.40649 0.96266,-0.0877 1.78941,1.45254 4.38775,5.42106 3.54937,5.42106 -0.22305,0 -1.12693,-0.84 -2.00862,-1.86667 z m 18.73149,-25.98912 c 2.79744,-3.99391 -1.39798,-8.59368 -5.72572,-6.27755 -2.8238,1.51126 -2.70994,4.8085 0.23734,6.87285 3.0805,2.15767 3.59955,2.10137 5.48838,-0.5953 z m 161.31921,47.22086 c 4.75471,-1.57873 11.71471,-4.73638 15.46667,-7.01701 9.15307,-5.56369 9.32271,-5.62962 6.50049,-2.52655 -4.61991,5.07966 -21.56278,12.68305 -27.84574,12.49623 -1.68044,-0.05 0.62713,-1.20901 5.87858,-2.95267 z m -176.84493,-5.1604 c 0.77,-0.30813 1.69,-0.27023 2.04445,0.0842 0.35444,0.35445 -0.27556,0.60655 -1.4,0.56024 -1.24261,-0.0512 -1.49536,-0.30394 -0.64445,-0.64445 z m -13.13333,-2.85854 c -5.9483,-2.78791 -16.53334,-10.79142 -16.53334,-12.5011 0,-0.60794 2.28,0.79347 5.06667,3.11426 2.78667,2.32079 8.42667,5.92575 12.53333,8.01103 8.26422,4.1964 7.38125,5.33528 -1.06666,1.37581 z m 266.59365,-76.95719 c -1.80016,-0.79036 -3.89893,-2.19121 -4.66394,-3.11298 -0.76501,-0.92178 -2.17215,-1.70114 -3.12698,-1.73191 -1.34276,-0.0433 -1.19235,-0.43522 0.66394,-1.7301 3.77154,-2.63089 2.98969,-4.19323 -1.86667,-3.7301 -3.98974,0.38048 -5.72053,-0.92608 -3.24966,-2.45315 0.55935,-0.3457 2.1006,-2.17403 3.42499,-4.06296 1.66669,-2.37712 1.83823,-2.97714 0.55722,-1.94907 -2.98109,2.39247 -3.46607,0.3639 -0.64786,-2.70986 l 2.58198,-2.81611 -3.73333,0.79991 c -2.05334,0.43995 -4.83936,1.05002 -6.19116,1.35572 l -2.45783,0.55581 2.36541,-4.1354 c 3.96813,-6.9374 5.46128,-10.11326 4.98075,-10.59379 -0.25231,-0.2523 -3.7024,1.4976 -7.66687,3.88869 -3.96447,2.39108 -7.46766,4.08789 -7.78486,3.77069 -0.3172,-0.3172 2.43889,-3.71719 6.12465,-7.55553 3.68577,-3.83834 6.16893,-6.9788 5.51815,-6.9788 -3.19574,0 -12.94818,2.62891 -16.59161,4.4725 -2.25685,1.14198 -4.34312,1.83657 -4.63615,1.54354 -0.99868,-0.99868 6.06885,-10.1366 10.90478,-14.09928 2.65223,-2.17331 4.63643,-4.13728 4.40933,-4.36439 -0.63905,-0.63904 -15.50979,4.9317 -19.24519,7.20947 -4.35675,2.65664 -5.28192,2.56727 -3.74593,-0.36184 5.32059,-10.14622 15.46756,-16.32656 28.68319,-17.47043 9.00036,-0.77901 9.35343,0.14966 0.88107,2.31746 l -5.68107,1.45359 5.86667,-0.46995 c 6.01655,-0.48195 6.13724,-0.21521 0.53333,1.17869 l -3.2,0.79596 4.26667,0.83587 c 2.34667,0.45973 8.015,0.86353 12.59629,0.89734 5.26711,0.0389 8.08724,0.45365 7.67038,1.12814 -1.22606,1.9838 3.16659,1.08084 9.6,-1.97338 3.67697,-1.74562 8.30645,-5.11465 10.88078,-7.91831 8.51435,-9.27285 18.37917,-33.09888 22.24425,-53.7255 2.42181,-12.92437 1.80469,-45.71787 -0.98074,-52.11614 -5.41517,-12.43888 -16.92601,-16.35153 -32.56649,-11.06966 -5.83144,1.96931 -28.91114,15.91242 -28.91114,17.46606 0,0.31106 1.8,-0.22598 4,-1.19344 9.38564,-4.12733 17.66187,-6.79783 20.84853,-6.72719 2.67442,0.0593 1.87385,0.51652 -3.67948,2.1015 -10.35827,2.95638 -18.22801,6.68859 -28.46216,13.49816 -7.54407,5.01965 -8.72611,6.17075 -7.02226,6.83845 2.09033,0.81916 1.73166,1.03384 -2.4654,1.47569 -1.30943,0.13786 -3.15597,0.89399 -4.10342,1.6803 -1.58063,1.31181 -1.57318,1.48209 0.0904,2.06563 1.43754,0.50426 0.89883,1.24094 -2.60129,3.55721 -2.42787,1.60668 -4.13948,3.36591 -3.80359,3.90939 0.33589,0.54348 -1.44699,2.27165 -3.96196,3.84038 -2.51497,1.56874 -7.56931,5.46357 -11.23188,8.6552 -5.84413,5.09269 -6.46822,5.99394 -5.09883,7.36333 1.36939,1.36939 1.96484,1.35122 4.86485,-0.14844 1.81746,-0.93984 3.87194,-1.51751 4.5655,-1.2837 0.69356,0.23382 -1.13088,1.48548 -4.05432,2.78148 -3.78175,1.6765 -4.89892,2.61373 -3.87203,3.24838 1.15656,0.71479 1.06294,1.1049 -0.47118,1.96344 -2.01962,1.13023 -3.10413,4.51116 -1.44706,4.51116 0.53475,0 0.97228,0.48 0.97228,1.06667 0,0.58667 -0.96,1.06667 -2.13333,1.06667 -1.17334,0 -2.13334,0.48 -2.13334,1.06666 0,0.58667 -0.84,1.07041 -1.86666,1.07499 -1.02667,0.005 -2.46667,1.30027 -3.2,2.87932 -1.60845,3.46338 -1.71153,5.64569 -0.26667,5.64569 0.58667,0 1.06667,0.72 1.06667,1.6 0,1.78665 2.7132,2.18393 3.72578,0.54555 0.35843,-0.57994 0.0258,-0.81426 -0.73924,-0.5207 -1.51333,0.58072 -4.46277,-3.29922 -3.58618,-4.71756 0.29661,-0.47993 3.22259,-2.72066 6.50216,-4.97939 4.92008,-3.38859 6.13298,-3.83465 6.93555,-2.55067 0.74082,1.18516 0.34935,1.63601 -1.64221,1.89132 -1.43819,0.18437 -3.63797,1.77201 -4.88841,3.52808 -2.35992,3.31421 -2.30142,5.42125 0.0712,2.56248 0.7421,-0.89417 1.72557,-1.62577 2.18548,-1.62577 1.16252,0 -0.0352,4.45505 -1.72722,6.42436 -0.82498,0.9602 -1.03605,2.20612 -0.51623,3.04721 0.61492,0.99497 1.09878,1.06784 1.60898,0.24231 0.40129,-0.64931 1.30129,-1.16104 2,-1.1372 0.69871,0.0238 -0.39148,1.46384 -2.42265,3.2 -4.2734,3.65271 -3.74344,4.08233 1.26726,1.0273 4.66658,-2.84522 7.16865,-2.8875 4.62625,-0.0782 -1.78816,1.97589 -1.77328,2.03555 0.36801,1.47559 1.62843,-0.42584 2.23152,-0.0854 2.23152,1.25956 0,1.53614 0.63523,1.72395 3.81395,1.12762 16.89432,-3.16939 34.38656,-4.41191 38.31938,-2.72192 1.4202,0.61028 -0.9656,0.94179 -7.13705,0.9917 -5.22408,0.0422 -9.57166,0.56246 -9.96065,1.19184 -0.45791,0.74092 1.40598,1.01934 5.53705,0.82712 10.75853,-0.5006 22.76065,0.14664 22.76065,1.22743 0,0.64511 -3.74543,0.79206 -9.8938,0.38819 -7.20407,-0.47322 -12.27219,-0.16797 -18.64244,1.1228 -11.98165,2.4278 -26.10055,6.51491 -34.32896,9.93749 -4.79378,1.99396 -6.99304,2.47204 -7.28889,1.58449 -0.23303,-0.69908 -1.37024,-1.27106 -2.52714,-1.27106 -2.90312,0 -7.36469,-10.00869 -8.10603,-18.18438 -0.44877,-4.94911 -0.0457,-7.77953 1.85166,-13.00414 3.28676,-9.05031 7.0839,-14.32739 19.68632,-27.35916 24.53691,-25.37283 49.47781,-45.9962 66.18261,-54.72574 7.53088,-3.93546 9.56011,-4.51386 17.27361,-4.92357 10.747,-0.57085 13.1247,-0.009 17.96968,4.24475 5.86746,5.15171 8.00771,10.41095 9.20972,22.63115 3.21462,32.68129 -3.93579,66.74907 -18.65779,88.89412 -3.85288,5.79556 -7.17578,9.02204 -16.02208,15.55721 -6.13857,4.53485 -11.45975,9.0236 -11.82484,9.97501 -0.49531,1.29076 -0.31917,1.4577 0.69395,0.65768 0.74677,-0.58968 2.07775,-1.1028 2.95775,-1.14027 0.88,-0.0375 2.80001,-0.40856 4.26667,-0.82463 2.04446,-0.57999 1.6945,-0.0814 -1.49986,2.13693 -2.41302,1.67571 -5.0189,2.67052 -6.19188,2.36378 -1.45339,-0.38007 -2.31847,0.24133 -3.06332,2.20041 -1.18878,3.12673 -0.47153,4.48744 1.38617,2.62974 0.69422,-0.69422 1.74222,-1.26222 2.32889,-1.26222 0.59259,0 0.49778,0.56888 -0.21333,1.28 -1.58209,1.58208 -1.686,5.12 -0.15038,5.12 0.62129,0 0.82812,0.48782 0.45962,1.08406 -0.36849,0.59624 -1.06652,0.83899 -1.55118,0.53946 -0.48465,-0.29953 -1.17148,0.2119 -1.52629,1.13651 -0.98593,2.56929 -0.77143,3.84394 0.51326,3.04996 0.8132,-0.50258 0.9355,1.06788 0.41043,5.27038 -0.51716,4.13919 -0.38089,5.98629 0.44163,5.98629 0.65427,0 1.18957,-0.72 1.18957,-1.6 0,-0.88 0.48,-1.6 1.06667,-1.6 1.71361,0 1.23775,2.78811 -1.17333,6.87458 -2.41086,4.08609 -2.97213,10.73996 -1.06667,12.64542 3.02665,3.02665 -0.22064,3.73308 -5.83302,1.26894 z m -26.06031,-60.2556 c 0.88,-0.5687 1.12,-1.034 0.53333,-1.034 -0.58667,0 -1.78667,0.4653 -2.66667,1.034 -0.88,0.5687 -1.12,1.034 -0.53333,1.034 0.58667,0 1.78667,-0.4653 2.66667,-1.034 z m 5.04444,-1.71111 c -0.35444,-0.35445 -1.27444,-0.39234 -2.04444,-0.0842 -0.85092,0.3405 -0.59816,0.59326 0.64444,0.64444 1.12445,0.0463 1.75445,-0.20579 1.4,-0.56023 z m -54.22061,-32.68889 c 0.49741,-1.32 1.22641,-4.08 1.62,-6.13333 1.01562,-5.29837 -1.12159,-1.68309 -2.41925,4.09237 -1.08071,4.80989 -0.65437,5.89857 0.79925,2.04096 z m 8.13773,-13.394 c -0.32842,-0.32841 -1.18912,-6.7e-4 -1.91267,0.72831 -1.04562,1.05345 -0.9231,1.17597 0.59711,0.59711 1.05197,-0.40057 1.64397,-0.997 1.31556,-1.32542 z m 5.97938,-10.846 c 0.10275,-2.73119 -6.32784,3.85327 -10.12927,10.37164 -0.50691,0.86921 1.56051,-0.99482 4.59427,-4.14229 3.03377,-3.14748 5.52451,-5.95068 5.535,-6.22935 z m 13.22062,-16.88733 c -0.32842,-0.32841 -1.18912,-6.8e-4 -1.91267,0.7283 -1.04562,1.05346 -0.9231,1.17598 0.59711,0.59712 1.05197,-0.40057 1.64397,-0.99701 1.31556,-1.32542 z m 6.33515,-5.37948 c -0.60102,-0.63269 -2.63005,0.97081 -2.63005,2.07848 0,0.57518 0.67159,0.42685 1.49242,-0.32961 0.82083,-0.75647 1.33276,-1.54346 1.13763,-1.74887 z M 215.7007,334.13331 c 3.42356,-6.65086 4.13238,-9.33265 3.07821,-11.6463 -0.90875,-1.99449 -0.82083,-2.48703 0.44396,-2.48703 2.07948,0 2.0681,-4.96444 -0.0229,-9.96881 -1.63395,-3.91058 -2.12671,-6.91345 -0.93969,-5.72643 0.36318,0.36318 1.28937,0.0313 2.05821,-0.73756 0.99257,-0.99258 1.29629,-3.99329 1.04749,-10.34921 l -0.35038,-8.95132 -5.17449,-4.61514 -5.17448,-4.61515 3.73334,0.23687 c 6.60481,0.41906 10.81284,-0.0405 10.15266,-1.10864 -0.35195,-0.56947 0.62533,-1.35295 2.17173,-1.74108 2.0839,-0.52302 2.4403,-0.94486 1.37696,-1.62978 -0.86294,-0.55583 0.0129,-0.6458 2.19784,-0.22575 2.41979,0.4652 3.40155,0.32464 2.9407,-0.42104 -0.38811,-0.62798 0.53217,-1.42659 2.09633,-1.81917 1.53348,-0.38488 3.48445,-1.39608 4.33549,-2.24711 0.85103,-0.85104 2.83305,-1.57777 4.40448,-1.61495 2.77263,-0.0656 2.78615,-0.0962 0.45714,-1.0323 -1.32,-0.53057 -2.4,-1.15881 -2.4,-1.39607 0,-0.23727 4.44,-0.33012 9.86667,-0.20634 10.47179,0.23886 18.70539,2.61561 17.24529,4.97811 -0.50171,0.81177 -0.3129,0.96829 0.53553,0.44393 1.79001,-1.10629 5.78054,2.83469 8.11715,8.01637 1.99832,4.43149 1.57496,6.41557 -0.92606,4.33991 -1.21683,-1.00988 -1.38033,-0.70532 -0.9205,1.71467 0.50206,2.64225 0.37825,2.79321 -1.2128,1.47872 -1.22922,-1.01555 -1.77195,-1.08183 -1.77195,-0.2164 0,0.68614 -1.8,-0.18621 -4,-1.93856 -3.91348,-3.11719 -13.5522,-6.38446 -14.88951,-5.04715 -0.37095,0.37096 0.48024,1.90358 1.89153,3.40582 l 2.56598,2.73137 -3.03296,-1.15313 c -2.45766,-0.9344 -1.87262,-0.0559 3.08432,4.63161 5.13747,4.8582 5.89271,6.02516 4.71518,7.28571 -1.1955,1.27978 -2.26711,0.98007 -7.27224,-2.03386 -5.4656,-3.29121 -8.6623,-4.37107 -8.6623,-2.92617 0,0.33475 1.92,2.88564 4.26667,5.66865 2.34667,2.783 4.26667,5.34418 4.26667,5.6915 0,0.81553 -4.44399,-0.26729 -5.97583,-1.45607 -1.73153,-1.34375 -14.29084,-2.47459 -14.29084,-1.28676 0,0.5481 2.19693,3.13647 4.88206,5.75196 7.90503,7.69997 7.96569,8.9252 0.26148,5.28168 -3.64396,-1.72332 -6.83147,-2.92722 -7.08336,-2.67533 -0.25189,0.25189 0.56152,2.18591 1.80759,4.29783 1.24606,2.11191 2.26556,4.53241 2.26556,5.37888 0,0.84646 0.48,1.53902 1.06667,1.53902 0.58667,0 1.06667,0.48645 1.06667,1.08099 0,0.63203 -1.60461,0.41053 -3.8636,-0.53334 -5.21889,-2.18059 -5.4561,-2.06495 -2.45567,1.19712 2.53393,2.75489 2.53767,2.78631 0.18593,1.56247 -2.72664,-1.41895 -3.24234,-8.6e-4 -0.75145,2.06638 0.90669,0.7525 1.41523,1.97618 1.13007,2.71929 -0.28516,0.74312 0.20938,1.95519 1.09899,2.6935 1.3598,1.12853 0.0328,1.89975 -8.33007,4.84127 -10.51854,3.69975 -11.97457,4.05654 -11.31351,2.77232 z m 35.23264,-69.23976 c -0.73333,-0.2959 -1.93333,-0.2959 -2.66667,0 -0.73333,0.29591 -0.13333,0.53801 1.33334,0.53801 1.46666,0 2.06666,-0.2421 1.33333,-0.53801 z m -47.09258,49.03284 c -6.86802,-8.3321 -9.23614,-22.88366 -5.59294,-34.36735 l 2.1703,-6.84094 -3.6783,-14.9802 c -5.92541,-24.13178 -7.03382,-31.90745 -7.63962,-53.59327 -0.63447,-22.71216 0.36284,-31.57102 4.6044,-40.89963 5.81399,-12.78692 12.44844,-17.70154 22.74495,-16.84884 8.28197,0.68586 16.43414,4.12514 24.91931,10.51309 17.33662,13.05166 54.11155,48.14636 62.74457,59.8778 5.3668,7.29297 9.4848,16.81445 9.48574,21.93257 10e-4,5.73764 -1.79071,9.24446 -7.34727,14.38002 -4.15988,3.8447 -4.50104,3.96299 -7.30774,2.53372 -5.61214,-2.85788 -26.45695,-9.44358 -36.01082,-11.37723 -5.28,-1.06865 -9,-1.98345 -8.26667,-2.0329 0.73334,-0.0495 1.33334,-0.56991 1.33334,-1.15658 0,-0.64019 -4.79783,-1.11867 -12,-1.19674 -11.54535,-0.12514 -11.75752,-0.16818 -5.6,-1.13598 5.90842,-0.92866 20.73206,-0.56163 30.93333,0.7659 3.43311,0.44677 3.79779,0.34818 1.86667,-0.5046 -6.47291,-2.85842 0.048,-2.19637 10.85477,1.10206 7.03665,2.14771 9.11686,1.75132 6.4241,-1.22415 -1.59673,-1.76437 -6.85384,-3.79235 -18.61221,-7.17983 -2.92409,-0.8424 -3.18867,-1.09914 -1.22063,-1.18443 3.08756,-0.13381 14.54604,2.77153 18.24,4.62481 1.49268,0.74889 4.35154,1.67368 6.35302,2.0551 3.59188,0.68449 3.61386,0.66564 1.69543,-1.4542 -2.07329,-2.29096 -1.3637,-4.45716 0.7633,-2.33016 1.70221,1.70221 2.96888,1.59123 2.96888,-0.26012 0,-2.28803 -7.09253,-7.67803 -13.55436,-10.3007 -6.35336,-2.57864 -6.89164,-3.84912 -0.93383,-2.20409 2.23833,0.61803 3.59107,0.65052 3.23707,0.0778 -0.33446,-0.54117 0.11189,-0.98395 0.99189,-0.98395 0.88,0 1.89665,0.48 2.25923,1.06667 0.36258,0.58666 0.0441,1.06666 -0.70772,1.06666 -0.75182,0 -0.18015,0.79254 1.27038,1.7612 1.45054,0.96866 4.25255,3.24866 6.2267,5.06667 3.23713,2.9811 3.51793,3.06995 2.86145,0.90547 -0.81668,-2.69273 1.22304,-3.42443 2.23013,-0.8 0.33768,0.88 1.03074,1.6 1.54012,1.6 1.39891,0 -0.98315,-5.52469 -3.62544,-8.40844 -4.68429,-5.11235 -15.11283,-11.85642 -21.74854,-14.06464 -3.74376,-1.24584 -11.46589,-3.13385 -17.16029,-4.19558 -8.27478,-1.54285 -9.38975,-1.94595 -5.55345,-2.0078 5.49479,-0.0886 21.04732,3.17849 26.84945,5.64016 2.15387,0.91383 7.16588,4.12123 11.13781,7.12758 4.8368,3.66095 6.67789,4.63651 5.57501,2.95406 -0.90567,-1.3816 -2.85619,-3.10873 -4.33448,-3.83804 -1.47829,-0.72932 -3.3493,-2.1392 -4.15779,-3.13305 -1.2963,-1.59349 -1.2389,-1.72031 0.4858,-1.07324 3.54275,1.32916 1.30756,-1.70758 -3.05419,-4.14943 -2.28701,-1.28034 -4.88984,-3.46573 -5.78406,-4.85641 -1.57015,-2.44188 -1.55362,-2.47369 0.48245,-0.92851 2.05428,1.55901 2.06341,1.53168 0.35619,-1.06666 -1.22559,-1.86531 -2.60015,-2.60413 -4.57411,-2.45856 -2.34827,0.17318 -2.71146,-0.14018 -2.1635,-1.86666 0.36218,-1.14113 0.23791,-2.07478 -0.27616,-2.07478 -0.51408,0 -1.86642,-0.75919 -3.00522,-1.68708 -2.04194,-1.66378 -2.0411,-1.67757 0.061,-0.9985 1.71243,0.55318 1.51466,0.0447 -1.00584,-2.58614 -1.91073,-1.99437 -3.82101,-3.05774 -4.8859,-2.71975 -0.97208,0.30852 -2.61191,-0.39906 -3.69282,-1.59345 -2.33726,-2.58265 -1.06062,-2.83842 2.0357,-0.40784 1.21953,0.95731 -1.14268,-1.51889 -5.24934,-5.50266 -9.40599,-9.12453 -17.87584,-14.658 -26.99686,-17.63743 -10.65257,-3.47972 -12.36942,-5.83384 -1.97267,-2.70488 2.73324,0.82259 4.96953,1.09789 4.96953,0.61179 0,-1.41902 -10.71009,-6.21598 -16.70228,-7.48082 -13.85279,-2.92407 -22.00613,4.41187 -27.12878,24.40904 -4.70725,18.37557 -1.59522,56.16038 7.0955,86.15022 3.16417,10.9189 3.19222,12.6082 0.39313,23.6771 -1.93531,7.65312 -2.05242,9.49597 -0.94493,14.86975 1.39765,6.78167 3.16972,10.79356 7.06756,16.00064 3.58034,4.78294 1.26323,4.38236 -2.73945,-0.47359 z m 309.22592,-30.6274 c 1.46667,-1.64603 5.06667,-4.37718 8,-6.06922 3.48357,-2.00943 4.59343,-3.07635 3.2,-3.07619 -1.17333,1.3e-4 -5.39722,2.45175 -9.38641,5.44802 -3.98919,2.99628 -7.50651,5.19435 -7.81626,4.88461 -0.30974,-0.30975 1.14534,-2.4543 3.23352,-4.76566 5.07836,-5.62115 20.82201,-14.03845 18.13967,-9.69833 -0.53161,0.86016 0.0817,1.01213 2.07038,0.51301 1.55417,-0.39007 2.82577,-0.26575 2.82577,0.27626 0,0.54202 2.04,0.77296 4.53333,0.5132 4.03817,-0.42071 3.61765,-0.12195 -3.85001,2.73519 -7.49411,2.86725 -12.38468,5.34075 -20.94999,10.59581 l -2.66667,1.63607 z m -11.34981,-7.81792 c 3.2573,-3.53308 12.47362,-8.78995 19.15461,-10.92557 7.22877,-2.31071 5.29861,-0.40874 -3.0259,2.98172 -4.44779,1.81152 -10.58259,5.08435 -13.63289,7.27297 -5.38388,3.86296 -5.45684,3.88258 -2.49582,0.67088 z m -249.98353,-16.36542 -9.06667,-1.96074 6.93334,0.35996 c 3.81333,0.19798 8.61333,1.09896 10.66666,2.00219 4.82479,2.12235 2.66753,2.02087 -8.53333,-0.40141 z m 27.25631,0.17544 c -0.33162,-0.53656 6e-5,-1.21867 0.73704,-1.51579 0.73699,-0.29713 -0.48834,-0.57812 -2.72297,-0.62444 -2.48812,-0.0516 -3.80081,-0.50835 -3.38666,-1.17847 0.37196,-0.60185 -0.89517,-1.64208 -2.81584,-2.31163 -3.01389,-1.05065 -3.20745,-1.31746 -1.41335,-1.94826 1.44353,-0.50753 -0.0667,-1.10498 -4.9419,-1.95503 -9.10242,-1.58712 -14.11759,-1.52002 -27.11263,0.36276 -5.86667,0.84999 -11.62667,1.54606 -12.8,1.54683 -1.88277,0.001 -1.9255,-0.11993 -0.36377,-1.0315 2.39167,-1.39602 19.5316,-3.12772 31.1821,-3.15042 6.46525,-0.0126 11.72899,0.66006 16.53334,2.11283 8.44713,2.5543 12.19367,4.72393 6.515,3.77285 -3.67337,-0.61522 -3.65195,-0.58167 1.33333,2.08906 4.76261,2.55144 6.98953,4.70622 3.46667,3.35437 -0.88,-0.33769 -1.6,-0.14904 -1.6,0.41921 0,1.30898 -1.81226,1.34899 -2.61036,0.0576 z m 14.61036,-2.34716 c -3.57434,-2.28906 -4.20431,-3.07728 -2.45948,-3.07728 1.01983,0 7.44379,5.25261 6.45948,5.28166 -0.29334,0.009 -2.09334,-0.98332 -4,-2.20438 z m -10.23399,-26.66821 c -2.25536,-1.18982 -3.85647,-2.4075 -3.55802,-2.70594 0.29844,-0.29845 1.60478,0.0258 2.90297,0.72058 1.70572,0.91287 2.56204,0.93686 3.08759,0.0865 0.50422,-0.81583 1.36223,-0.6691 2.79768,0.47844 1.99012,1.59094 1.96699,1.62804 -0.59623,0.95626 -2.59396,-0.67983 -2.60851,-0.65318 -0.53334,0.97751 2.97977,2.34154 0.79168,2.06761 -4.10065,-0.51335 z m 225.96733,1.19093 c 0.36258,-0.58666 1.37923,-1.06666 2.25923,-1.06666 0.88,0 1.30335,0.48 0.94077,1.06666 -0.36258,0.58667 -1.37924,1.06667 -2.25924,1.06667 -0.88,0 -1.30334,-0.48 -0.94076,-1.06667 z m -213.33334,-9.71726 c -6.41763,-5.1836 -9.41094,-8.11791 -6.93334,-6.7967 3.90681,2.08337 11.5678,8.14403 12.12285,9.59048 0.8008,2.08684 0.95734,2.17111 -5.18951,-2.79378 z m 211.13721,-4.59566 c 2.37112,-1.93199 3.79613,-2.16488 3.79613,-0.62041 0,0.58667 -0.44075,1.06667 -0.97943,1.06667 -0.53868,0 -1.85868,0.27918 -2.93333,0.62041 -1.78797,0.56772 -1.77807,0.47713 0.11663,-1.06667 z"
       id="path1" />
  </g>
</svg>
